<?xml version="1.0" encoding="utf-8"?>
<!-- Generator: Adobe Illustrator 17.0.0, SVG Export Plug-In . SVG Version: 6.00 Build 0)  -->
<!DOCTYPE svg PUBLIC "-//W3C//DTD SVG 1.1//EN" "http://www.w3.org/Graphics/SVG/1.1/DTD/svg11.dtd">
<svg version="1.1" id="Layer_1" xmlns="http://www.w3.org/2000/svg" xmlns:xlink="http://www.w3.org/1999/xlink" x="0px" y="0px"
	 width="50px" height="50px" viewBox="0 0 50 50" enable-background="new 0 0 50 50" xml:space="preserve">
<g>
	<path fill="#FFFFFF" d="M24.983,50c-13.785,0-25-11.214-25-25s11.215-25,25-25s25,11.215,25,25S38.769,50,24.983,50z M24.983,1.991
		C12.297,1.991,1.975,12.313,1.975,25s10.322,23.009,23.009,23.009S47.993,37.687,47.993,25
		C47.992,12.313,37.671,1.991,24.983,1.991z"/>
</g>
<path fill="#FFFFFF" d="M26.428,37.363h-5.107V25.019h-2.558v-4.262h2.558v-2.55c0-3.47,1.439-5.534,5.534-5.534h3.41v4.254h-2.132
	c-1.595,0-1.695,0.595-1.695,1.708l-0.01,2.122h3.86l-0.453,4.262h-3.407C26.428,25.019,26.428,37.363,26.428,37.363z"/>
</svg>
