<?xml version="1.0" encoding="utf-8"?>
<!-- Generator: Adobe Illustrator 17.0.0, SVG Export Plug-In . SVG Version: 6.00 Build 0)  -->
<!DOCTYPE svg PUBLIC "-//W3C//DTD SVG 1.1//EN" "http://www.w3.org/Graphics/SVG/1.1/DTD/svg11.dtd">
<svg version="1.1" id="Layer_1" xmlns="http://www.w3.org/2000/svg" xmlns:xlink="http://www.w3.org/1999/xlink" x="0px" y="0px"
	 width="50px" height="50px" viewBox="0 0 50 50" enable-background="new 0 0 50 50" xml:space="preserve">
<path fill="#FFFFFF" d="M24.983,0c-13.785,0-25,11.214-25,25c0,6.903,2.813,13.161,7.351,17.689c1.375,1.372,2.91,2.583,4.571,3.607
	c0.998,0.615,2.044,1.161,3.128,1.633c1.488,0.648,3.049,1.155,4.67,1.505C21.407,49.802,23.172,50,24.983,50
	c13.786,0,25-11.215,25-25S38.768,0,24.983,0z M10.579,42.923c0.039-0.591,0.178-1.11,0.434-1.549
	c0.258-0.495,0.579-0.907,0.957-1.24c0.39-0.32,0.775-0.565,1.153-0.739c0.379-0.16,0.67-0.281,0.879-0.359
	c0.887-0.267,1.754-0.46,2.601-0.581c0.86-0.078,1.396-0.105,1.605-0.078c0.352,0,0.657,0.012,0.918,0.037
	c1.526,1.066,2.646,1.967,3.363,2.698c0.679,0.772,1.019,1.677,1.019,2.716c0,1.279-0.497,2.324-1.485,3.138
	c-0.332,0.27-0.732,0.481-1.161,0.666C17.019,46.933,13.506,45.28,10.579,42.923z M17.798,31.826c-0.854,0-1.612-0.26-2.276-0.778
	c-0.664-0.523-1.205-1.154-1.624-1.903c-0.868-1.601-1.302-3.143-1.302-4.623c-0.026-1.122,0.27-2.135,0.892-3.042
	c0.736-0.867,1.658-1.316,2.768-1.341c0.839,0.025,1.581,0.275,2.226,0.741c0.633,0.492,1.143,1.133,1.531,1.919
	c0.825,1.642,1.237,3.272,1.237,4.884c0,0.374-0.031,0.834-0.089,1.384c-0.1,0.546-0.322,1.078-0.67,1.599
	C19.774,31.401,18.876,31.787,17.798,31.826z M24.984,48.009c-0.675,0-1.342-0.035-2.003-0.093c0.182-0.134,0.365-0.267,0.533-0.413
	c1.751-1.532,2.628-3.289,2.628-5.272c-0.025-1.399-0.344-2.532-0.956-3.394c-0.651-0.856-1.409-1.632-2.271-2.338l-1.389-1.141
	c-0.202-0.197-0.409-0.431-0.621-0.698c-0.249-0.281-0.374-0.632-0.374-1.057c0-0.441,0.121-0.827,0.366-1.16
	c0.207-0.32,0.433-0.606,0.676-0.858c0.427-0.375,0.83-0.741,1.209-1.1c0.34-0.361,0.664-0.753,0.969-1.18
	c0.622-0.877,0.946-2.047,0.97-3.513c0-0.799-0.09-1.499-0.269-2.098c-0.219-0.599-0.469-1.119-0.751-1.558
	c-0.298-0.464-0.6-0.86-0.908-1.178c-0.322-0.308-0.611-0.54-0.868-0.7h2.524l2.528-1.476h-8.189c-1.088,0-2.251,0.125-3.494,0.38
	c-1.253,0.293-2.465,0.919-3.628,1.876c-1.694,1.638-2.541,3.465-2.541,5.473c0,1.665,0.598,3.121,1.794,4.373
	c1.142,1.345,2.803,2.03,4.984,2.057c0.411,0,0.85-0.027,1.316-0.078c-0.079,0.211-0.161,0.447-0.252,0.702
	c-0.102,0.242-0.153,0.542-0.153,0.903c0,0.602,0.134,1.117,0.405,1.546c0.23,0.441,0.493,0.856,0.789,1.244
	c-0.955,0.03-2.155,0.15-3.601,0.359c-1.459,0.254-2.852,0.761-4.179,1.517c-0.836,0.498-1.478,1.055-1.947,1.665
	C4.377,36.674,1.975,31.114,1.975,25c0-12.687,10.322-23.009,23.008-23.009c12.688,0,23.009,10.322,23.01,23.009
	C47.993,37.687,37.671,48.009,24.984,48.009z"/>
<polygon id="PLUS" fill="#FFFFFF" points="38.074,23.253 33.778,23.253 33.778,18.956 31.695,18.956 31.695,23.253 27.399,23.253 
	27.399,25.335 31.695,25.335 31.695,29.632 33.778,29.632 33.778,25.335 38.074,25.335 "/>
</svg>
