<?xml version="1.0" encoding="utf-8"?>
<!-- Generator: Adobe Illustrator 17.0.0, SVG Export Plug-In . SVG Version: 6.00 Build 0)  -->
<!DOCTYPE svg PUBLIC "-//W3C//DTD SVG 1.1//EN" "http://www.w3.org/Graphics/SVG/1.1/DTD/svg11.dtd">
<svg version="1.1" id="Layer_1" xmlns="http://www.w3.org/2000/svg" xmlns:xlink="http://www.w3.org/1999/xlink" x="0px" y="0px"
	 width="50px" height="50px" viewBox="0 0 50 50" enable-background="new 0 0 50 50" xml:space="preserve">
<g>
	<path fill="#231F20" d="M24.983,50c-13.785,0-25-11.214-25-25s11.215-25,25-25s25,11.215,25,25S38.769,50,24.983,50z M24.983,1.991
		C12.297,1.991,1.975,12.313,1.975,25c0,12.687,10.322,23.009,23.009,23.009c12.687,0,23.009-10.322,23.009-23.009
		C47.992,12.313,37.671,1.991,24.983,1.991z"/>
</g>
<g>
	<defs>
		<circle id="SVGID_1_" cx="24.983" cy="25" r="24.067"/>
	</defs>
	<clipPath id="SVGID_2_">
		<use xlink:href="#SVGID_1_"  overflow="visible"/>
	</clipPath>
	<g clip-path="url(#SVGID_2_)">
		<path fill="#231F20" d="M21.908,20.258c0.257,0.16,0.546,0.392,0.868,0.7c0.308,0.318,0.61,0.714,0.908,1.178
			c0.282,0.439,0.532,0.959,0.751,1.558c0.179,0.599,0.269,1.299,0.269,2.098c-0.024,1.466-0.348,2.636-0.97,3.513
			c-0.305,0.427-0.629,0.819-0.969,1.18c-0.379,0.359-0.782,0.725-1.209,1.1c-0.243,0.252-0.469,0.538-0.676,0.858
			c-0.245,0.333-0.366,0.719-0.366,1.16c0,0.425,0.125,0.776,0.374,1.057c0.212,0.267,0.419,0.501,0.621,0.698l1.389,1.141
			c0.862,0.706,1.62,1.482,2.271,2.338c0.612,0.862,0.931,1.995,0.956,3.394c0,1.983-0.877,3.74-2.628,5.272
			c-1.817,1.583-4.439,2.406-7.864,2.457c-2.869-0.027-5.011-0.639-6.424-1.835c-1.427-1.115-2.142-2.451-2.142-4.007
			c0-0.758,0.232-1.601,0.697-2.533c0.45-0.93,1.265-1.747,2.447-2.451c1.327-0.756,2.72-1.263,4.179-1.517
			c1.446-0.209,2.646-0.329,3.601-0.359c-0.296-0.388-0.559-0.803-0.789-1.244c-0.271-0.429-0.405-0.944-0.405-1.546
			c0-0.361,0.051-0.661,0.153-0.903c0.091-0.255,0.173-0.491,0.252-0.702c-0.466,0.051-0.905,0.078-1.316,0.078
			c-2.181-0.027-3.842-0.712-4.984-2.057c-1.196-1.252-1.794-2.708-1.794-4.373c0-2.008,0.847-3.835,2.541-5.473
			c1.163-0.957,2.375-1.583,3.628-1.876c1.243-0.255,2.406-0.38,3.494-0.38h8.189l-2.528,1.476H21.908z M23.491,43.828
			c0-1.039-0.34-1.944-1.019-2.716c-0.717-0.731-1.837-1.632-3.363-2.698c-0.261-0.025-0.566-0.037-0.918-0.037
			c-0.209-0.027-0.745,0-1.605,0.078c-0.847,0.121-1.714,0.314-2.601,0.581c-0.209,0.078-0.5,0.199-0.879,0.359
			c-0.378,0.174-0.763,0.419-1.153,0.739c-0.378,0.333-0.699,0.745-0.957,1.24c-0.302,0.519-0.451,1.144-0.451,1.876
			c0,1.439,0.651,2.624,1.955,3.556c1.24,0.934,2.934,1.412,5.086,1.439c1.93-0.027,3.402-0.452,4.42-1.279
			C22.994,46.152,23.491,45.107,23.491,43.828z M17.781,31.826c1.078-0.039,1.976-0.425,2.693-1.16
			c0.348-0.521,0.57-1.053,0.67-1.599c0.058-0.55,0.089-1.01,0.089-1.384c0-1.612-0.412-3.242-1.237-4.884
			c-0.388-0.786-0.898-1.427-1.531-1.919c-0.645-0.466-1.387-0.716-2.226-0.741c-1.11,0.025-2.032,0.474-2.768,1.341
			c-0.622,0.907-0.918,1.92-0.892,3.042c0,1.48,0.434,3.022,1.302,4.623c0.419,0.749,0.96,1.38,1.624,1.903
			C16.169,31.566,16.927,31.826,17.781,31.826z"/>
	</g>
	<polygon id="PLUS" clip-path="url(#SVGID_2_)" fill="#231F20" points="38.057,23.253 33.761,23.253 33.761,18.956 31.678,18.956 
		31.678,23.253 27.382,23.253 27.382,25.335 31.678,25.335 31.678,29.632 33.761,29.632 33.761,25.335 38.057,25.335 	"/>
</g>
</svg>
