<?xml version="1.0" encoding="utf-8"?>
<!-- Generator: Adobe Illustrator 17.0.0, SVG Export Plug-In . SVG Version: 6.00 Build 0)  -->
<!DOCTYPE svg PUBLIC "-//W3C//DTD SVG 1.1//EN" "http://www.w3.org/Graphics/SVG/1.1/DTD/svg11.dtd">
<svg version="1.1" id="Layer_1" xmlns="http://www.w3.org/2000/svg" xmlns:xlink="http://www.w3.org/1999/xlink" x="0px" y="0px"
	 width="50px" height="50px" viewBox="0 0 50 50" enable-background="new 0 0 50 50" xml:space="preserve">
<g>
	<path fill="#231F20" d="M24.983,50c-13.785,0-25-11.214-25-25s11.215-25,25-25s25,11.215,25,25S38.769,50,24.983,50z M24.983,1.991
		C12.297,1.991,1.975,12.313,1.975,25c0,12.687,10.322,23.009,23.009,23.009c12.687,0,23.009-10.322,23.009-23.009
		C47.992,12.313,37.671,1.991,24.983,1.991z"/>
</g>
<g>
	<path fill-rule="evenodd" clip-rule="evenodd" fill="#231F20" d="M19.333,33.803v-13.35h-4.436v13.35H19.333L19.333,33.803z
		 M17.111,18.632c1.549,0,2.513-1.021,2.513-2.299c-0.028-1.314-0.964-2.309-2.48-2.309c-1.518,0-2.508,0.995-2.508,2.309
		c0,1.279,0.96,2.299,2.447,2.299H17.111L17.111,18.632z"/>
	<path fill-rule="evenodd" clip-rule="evenodd" fill="#231F20" d="M21.79,33.803h4.433v-7.449c0-0.406,0.031-0.8,0.151-1.091
		c0.32-0.791,1.044-1.618,2.273-1.618c1.607,0,2.249,1.224,2.249,3.02v7.139h4.434v-7.652c0-4.101-2.186-6.009-5.107-6.009
		c-2.393,0-3.443,1.337-4.028,2.251h0.027v-1.94H21.79C21.848,21.706,21.79,33.803,21.79,33.803L21.79,33.803z"/>
</g>
</svg>
