<?xml version="1.0" encoding="utf-8"?>
<!-- Generator: Adobe Illustrator 17.0.0, SVG Export Plug-In . SVG Version: 6.00 Build 0)  -->
<!DOCTYPE svg PUBLIC "-//W3C//DTD SVG 1.1//EN" "http://www.w3.org/Graphics/SVG/1.1/DTD/svg11.dtd">
<svg version="1.1" id="Artwork" xmlns="http://www.w3.org/2000/svg" xmlns:xlink="http://www.w3.org/1999/xlink" x="0px" y="0px"
	 width="168.695px" height="76.13px" viewBox="0 0 168.695 76.13" enable-background="new 0 0 168.695 76.13" xml:space="preserve">
<g>
	<path fill="#034EA1" d="M66.017,43.371c-2.703-1.191-5.986-1.264-7.826-1.191c-3.805,0.15-5,0.479-5,0.479v18.26
		c0,0.222,0.138,0.415,0.341,0.483c0.009,0.003,1.718,0.51,4.694,0.589c3.828,0.104,6.621-0.406,8.706-1.802
		c2.798-1.87,4.174-4.533,4.174-8.426C71.105,47.682,69.395,44.86,66.017,43.371z M61.004,57.74c-1.621,0.07-2.62-0.042-3.085-0.178
		l0.003-11.03c0.512-0.08,1.672-0.186,3.218-0.127c1.93,0.074,5.173,0.758,5.173,5.161C66.313,56.157,63.003,57.654,61.004,57.74z
		 M81.169,49.831c-0.087-0.026-0.163-0.05-0.23-0.074c-1.352-0.453-2.461-1.142-2.514-2.073c-0.027-0.503,0.155-0.953,0.418-1.231
		c0.379-0.402,1.069-0.559,1.502-0.559c2.127,0,4.103,1.01,4.103,1.01l1.17-3.134c0.043-0.125,0.037-0.265-0.019-0.382
		c-0.056-0.124-0.161-0.219-0.288-0.265l-0.025-0.008c-1.024-0.383-2.872-0.949-4.999-0.98c-4.128-0.057-6.607,2.038-6.607,5.453
		c0,4.03,3.397,5.341,4.516,5.794c0.19,0.08,0.401,0.158,0.622,0.243c0.741,0.28,1.56,0.631,2.185,1.019
		c0.683,0.424,0.828,1.208,0.721,1.723c-0.31,1.49-1.944,1.811-3.249,1.615c-2.488-0.374-3.794-1.062-3.794-1.062l-1.068,3.157
		c-0.078,0.231,0.024,0.485,0.236,0.604c0.021,0.01,2.302,1.165,5.225,1.165c3.342,0,7.245-1.592,7.245-6.09
		C86.318,51.618,82.732,50.33,81.169,49.831z M111.456,43.066v18.037c0,0.135-0.053,0.263-0.15,0.358
		c-0.094,0.092-0.222,0.142-0.353,0.142l-4.223,0.007c0,0,0.026-7.434,0-8.914c-0.018-0.977,0.285-3.957,0.395-4.461
		c0-0.005,0-0.021,0.002-0.035c-0.017-0.078-0.083-0.055-0.102-0.043c-0.011,0.009-0.024,0.027-0.024,0.027l-4.792,7.729
		c-0.027,0.054-0.058,0.098-0.096,0.139c-0.096,0.094-0.222,0.146-0.357,0.146l-1.177-0.006h-0.002L99.398,56.2
		c-0.134,0-0.262-0.053-0.356-0.146c-0.039-0.041-0.069-0.085-0.097-0.139l-4.791-7.729c0,0-0.017-0.019-0.023-0.027
		c-0.021-0.012-0.086-0.035-0.103,0.043c0,0.014,0,0.03,0.001,0.035c0.108,0.504,0.414,3.484,0.396,4.461
		c-0.025,1.48,0,8.914,0,8.914l-4.224-0.007c-0.13,0-0.258-0.051-0.353-0.142c-0.096-0.096-0.151-0.224-0.151-0.358V43.066
		c0-0.276,0.227-0.5,0.503-0.5h5.102c0.213,0,0.379,0.111,0.488,0.286c0,0,3.607,6.207,4.037,6.949
		c0.277,0.472,0.686,1.569,0.685,1.634v0.003l0,0c0,0.002,0,0.006,0,0.006h0.001c0.002,0.033,0.029,0.058,0.062,0.059l0,0h0.002
		c0.002,0,0.002,0,0.002,0l0,0c0.033-0.002,0.059-0.026,0.062-0.059h0.003c0,0,0-0.004,0-0.006l0,0v-0.003
		c-0.003-0.064,0.408-1.162,0.683-1.634c0.429-0.742,4.037-6.949,4.037-6.949c0.11-0.175,0.275-0.286,0.488-0.286h5.102
		C111.231,42.566,111.456,42.79,111.456,43.066z"/>
	<g>
		<path fill="#008FD5" d="M54.725,71.587h-1.521V66.35h1.385c0.78,0,1.052,0.052,1.377,0.257c0.394,0.249,0.591,0.591,0.591,1.028
			c0,0.562-0.318,0.977-0.901,1.145c0.871,0.211,1.114,0.803,1.114,1.325C56.77,71.141,56.05,71.587,54.725,71.587z M55.218,67.121
			c-0.107-0.038-0.243-0.059-0.493-0.059h-0.674v1.427h0.743c0.317,0,0.477-0.021,0.643-0.195c0.159-0.164,0.205-0.386,0.205-0.521
			C55.642,67.468,55.467,67.213,55.218,67.121z M55.316,69.255c-0.129-0.037-0.236-0.045-0.483-0.045h-0.766v1.657h0.787
			c0.666,0,0.954-0.379,0.954-0.849C55.808,69.65,55.604,69.337,55.316,69.255z"/>
		<path fill="#008FD5" d="M60.374,71.587l-0.454-0.81c-0.364-0.643-0.605-1.008-0.893-1.295c-0.099-0.099-0.175-0.15-0.34-0.158
			v2.263h-0.856V66.35h1.598c1.174,0,1.703,0.681,1.703,1.499c0,0.749-0.484,1.438-1.301,1.438c0.189,0.098,0.537,0.606,0.81,1.044
			l0.772,1.257h-1.039V71.587z M59.163,67.053h-0.477v1.657h0.447c0.454,0,0.696-0.062,0.854-0.222
			c0.144-0.143,0.235-0.359,0.235-0.636C60.222,67.325,59.934,67.053,59.163,67.053z"/>
		<path fill="#008FD5" d="M62.244,71.587V66.35h0.893v5.237H62.244z"/>
		<path fill="#008FD5" d="M66.491,71.655c-0.734,0-1.302-0.234-1.71-0.741c-0.401-0.491-0.583-1.081-0.583-1.907
			c0-1.076,0.326-1.826,0.985-2.317c0.377-0.288,0.786-0.407,1.294-0.407c0.599,0,1.127,0.181,1.56,0.551l-0.44,0.546
			c-0.362-0.279-0.704-0.402-1.105-0.402c-0.969,0-1.325,0.849-1.325,2.074c0,0.733,0.137,1.25,0.386,1.546
			c0.212,0.249,0.591,0.393,0.992,0.393c0.272,0,0.5-0.061,0.697-0.166v-1.362H66.35l-0.121-0.713h1.9v2.468
			C67.649,71.503,67.075,71.655,66.491,71.655z"/>
		<path fill="#008FD5" d="M71.988,71.587v-2.42h-1.787v2.42h-0.863V66.35h0.863v2.104h1.787V66.35h0.878v5.237
			C72.866,71.587,71.988,71.587,71.988,71.587z"/>
		<path fill="#008FD5" d="M77.173,67.076h-1.317v4.511h-0.871v-4.511H73.66v-0.727h3.628L77.173,67.076z"/>
		<path fill="#008FD5" d="M80.823,71.685c-0.599,0-1.203-0.159-1.718-0.47l0.333-0.666c0.469,0.273,0.886,0.432,1.415,0.432
			c0.644,0,1.03-0.311,1.03-0.832c0-0.386-0.243-0.626-0.78-0.78l-0.561-0.158c-0.476-0.138-0.817-0.335-1.015-0.628
			c-0.143-0.212-0.22-0.464-0.22-0.767c0-0.922,0.728-1.551,1.779-1.551c0.599,0,1.197,0.173,1.659,0.499l-0.394,0.614
			c-0.485-0.287-0.818-0.402-1.234-0.402c-0.516,0-0.855,0.279-0.855,0.712c0,0.326,0.181,0.491,0.696,0.644l0.621,0.183
			c0.757,0.22,1.286,0.704,1.286,1.492C82.867,70.876,82.163,71.685,80.823,71.685z"/>
		<path fill="#008FD5" d="M85.919,71.671c-0.696,0-1.249-0.265-1.658-0.758c-0.393-0.476-0.598-1.114-0.598-1.869
			c0-0.628,0.112-1.15,0.349-1.591c0.393-0.748,1.112-1.202,1.929-1.202c0.507,0,0.992,0.149,1.303,0.407l-0.401,0.575
			c-0.28-0.204-0.568-0.296-0.894-0.296c-0.447,0-0.818,0.229-1.045,0.628c-0.182,0.32-0.273,0.76-0.273,1.38
			c0,0.642,0.068,1.007,0.205,1.302c0.227,0.5,0.659,0.741,1.167,0.741c0.37,0,0.642-0.097,0.938-0.333l0.409,0.553
			C86.94,71.518,86.479,71.671,85.919,71.671z"/>
		<path fill="#008FD5" d="M88.182,71.587V66.35h0.894v5.237H88.182z"/>
		<path fill="#008FD5" d="M90.363,71.587V66.35h2.907l-0.113,0.713h-1.923v1.427h1.613v0.722H91.25v1.635h2.096v0.741L90.363,71.587
			L90.363,71.587z"/>
		<path fill="#008FD5" d="M96.851,71.587l-1.173-2.461c-0.279-0.581-0.568-1.239-0.666-1.552l-0.022,0.024
			c0.038,0.438,0.046,0.938,0.054,1.452l0.03,2.536h-0.855v-5.237h0.983l1.271,2.56c0.243,0.483,0.47,1.103,0.538,1.346l0.022-0.022
			c-0.022-0.265-0.076-1.014-0.076-1.492l-0.016-2.391h0.825v5.237C97.766,71.587,96.851,71.587,96.851,71.587z"/>
		<path fill="#008FD5" d="M101.084,71.671c-0.697,0-1.249-0.265-1.658-0.758c-0.394-0.476-0.598-1.114-0.598-1.869
			c0-0.628,0.114-1.15,0.348-1.591c0.394-0.748,1.113-1.202,1.931-1.202c0.506,0,0.991,0.149,1.301,0.407l-0.399,0.575
			c-0.281-0.204-0.569-0.296-0.894-0.296c-0.446,0-0.817,0.229-1.044,0.628c-0.182,0.32-0.273,0.76-0.273,1.38
			c0,0.642,0.068,1.007,0.205,1.302c0.226,0.5,0.658,0.741,1.165,0.741c0.372,0,0.644-0.097,0.938-0.333l0.41,0.553
			C102.105,71.518,101.644,71.671,101.084,71.671z"/>
		<path fill="#008FD5" d="M103.347,71.587V66.35h2.909l-0.114,0.713h-1.924v1.427h1.612v0.722h-1.597v1.635h2.097v0.741
			L103.347,71.587L103.347,71.587z"/>
		<path fill="#008FD5" d="M107.648,71.702c-0.333,0-0.598-0.281-0.598-0.622c0-0.332,0.258-0.599,0.582-0.599
			c0.334,0,0.605,0.267,0.605,0.599C108.238,71.42,107.967,71.702,107.648,71.702z"/>
		<path fill="#008FD5" d="M112.601,71.587h-1.523V66.35h1.387c0.78,0,1.052,0.052,1.376,0.257c0.395,0.249,0.591,0.591,0.591,1.028
			c0,0.562-0.318,0.977-0.901,1.145c0.871,0.211,1.113,0.803,1.113,1.325C114.644,71.141,113.925,71.587,112.601,71.587z
			 M113.092,67.121c-0.106-0.038-0.244-0.059-0.492-0.059h-0.674v1.427h0.741c0.318,0,0.477-0.021,0.644-0.195
			c0.157-0.164,0.205-0.386,0.205-0.521C113.517,67.468,113.342,67.213,113.092,67.121z M113.189,69.255
			c-0.128-0.037-0.233-0.045-0.484-0.045h-0.765v1.657h0.788c0.665,0,0.955-0.379,0.955-0.849
			C113.683,69.65,113.478,69.337,113.189,69.255z"/>
		<path fill="#008FD5" d="M118.248,71.587l-0.454-0.81c-0.363-0.643-0.605-1.008-0.893-1.295c-0.099-0.099-0.174-0.15-0.341-0.158
			v2.263h-0.854V66.35h1.597c1.173,0,1.702,0.681,1.702,1.499c0,0.749-0.483,1.438-1.301,1.438c0.19,0.098,0.537,0.606,0.81,1.044
			l0.772,1.257h-1.038V71.587z M117.036,67.053h-0.477v1.657h0.447c0.454,0,0.697-0.062,0.855-0.222
			c0.144-0.143,0.234-0.359,0.234-0.636C118.096,67.325,117.809,67.053,117.036,67.053z"/>
		<path fill="#008FD5" d="M120.118,71.587V66.35h0.894v5.237H120.118z"/>
		<path fill="#008FD5" d="M124.366,71.655c-0.735,0-1.303-0.234-1.712-0.741c-0.401-0.491-0.583-1.081-0.583-1.907
			c0-1.076,0.326-1.826,0.984-2.317c0.378-0.288,0.788-0.407,1.294-0.407c0.598,0,1.127,0.181,1.56,0.551l-0.439,0.546
			c-0.364-0.279-0.704-0.402-1.105-0.402c-0.969,0-1.325,0.849-1.325,2.074c0,0.733,0.137,1.25,0.385,1.546
			c0.212,0.249,0.591,0.393,0.993,0.393c0.271,0,0.499-0.061,0.694-0.166v-1.362h-0.893l-0.12-0.713h1.899v2.468
			C125.524,71.503,124.948,71.655,124.366,71.655z"/>
		<path fill="#008FD5" d="M129.862,71.587v-2.42h-1.786v2.42h-0.864V66.35h0.864v2.104h1.786V66.35h0.877v5.237
			C130.739,71.587,129.862,71.587,129.862,71.587z"/>
		<path fill="#008FD5" d="M135.048,67.076h-1.315v4.511h-0.873v-4.511h-1.323v-0.727h3.625L135.048,67.076z"/>
		<path fill="#008FD5" d="M135.692,71.587V66.35h2.907l-0.115,0.713h-1.922v1.427h1.614v0.722h-1.598v1.635h2.097v0.741
			L135.692,71.587L135.692,71.587z"/>
		<path fill="#008FD5" d="M142.089,71.587l-0.454-0.81c-0.363-0.643-0.606-1.008-0.894-1.295c-0.098-0.099-0.174-0.15-0.341-0.158
			v2.263h-0.855V66.35h1.598c1.173,0,1.702,0.681,1.702,1.499c0,0.749-0.483,1.438-1.3,1.438c0.188,0.098,0.537,0.606,0.81,1.044
			l0.772,1.257h-1.038V71.587z M140.879,67.053h-0.478v1.657h0.448c0.454,0,0.697-0.062,0.854-0.222
			c0.145-0.143,0.235-0.359,0.235-0.636C141.939,67.325,141.65,67.053,140.879,67.053z"/>
		<path fill="#008FD5" d="M148.343,71.587h-2.679V66.35h0.885v4.519h1.938L148.343,71.587z"/>
		<path fill="#008FD5" d="M149.244,71.587V66.35h0.895v5.237H149.244z"/>
		<path fill="#008FD5" d="M153.318,71.61h-0.81l-1.764-5.261h0.954l0.945,2.965c0.137,0.417,0.229,0.798,0.272,1.053h0.016
			c0.06-0.249,0.136-0.551,0.318-1.096l0.96-2.922h0.91L153.318,71.61z"/>
		<path fill="#008FD5" d="M155.726,71.587V66.35h0.895v5.237H155.726z"/>
		<path fill="#008FD5" d="M160.54,71.587l-1.172-2.461c-0.282-0.581-0.569-1.239-0.668-1.552l-0.023,0.024
			c0.04,0.438,0.046,0.938,0.055,1.452l0.03,2.536h-0.855v-5.237h0.983l1.272,2.56c0.242,0.483,0.47,1.103,0.538,1.346l0.022-0.022
			c-0.022-0.265-0.076-1.014-0.076-1.492l-0.014-2.391h0.825v5.237C161.457,71.587,160.54,71.587,160.54,71.587z"/>
		<path fill="#008FD5" d="M164.811,71.655c-0.735,0-1.304-0.234-1.712-0.741c-0.4-0.491-0.582-1.081-0.582-1.907
			c0-1.076,0.326-1.826,0.985-2.317c0.377-0.288,0.787-0.407,1.294-0.407c0.599,0,1.128,0.181,1.558,0.551l-0.438,0.546
			c-0.364-0.279-0.704-0.402-1.105-0.402c-0.969,0-1.325,0.849-1.325,2.074c0,0.733,0.135,1.25,0.385,1.546
			c0.212,0.249,0.591,0.393,0.992,0.393c0.272,0,0.5-0.061,0.696-0.166v-1.362h-0.893l-0.12-0.713h1.901v2.468
			C165.968,71.503,165.395,71.655,164.811,71.655z"/>
		<path fill="#008FD5" d="M168.104,71.702c-0.332,0-0.597-0.281-0.597-0.622c0-0.332,0.257-0.599,0.583-0.599
			c0.334,0,0.606,0.267,0.606,0.599C168.695,71.42,168.423,71.702,168.104,71.702z"/>
	</g>
	<g>
		
			<linearGradient id="SVGID_1_" gradientUnits="userSpaceOnUse" x1="369.2424" y1="-173.2656" x2="350.6036" y2="-207.4368" gradientTransform="matrix(1 0 0 -1 -321 -145.37)">
			<stop  offset="0" style="stop-color:#FCB415"/>
			<stop  offset="0.12" style="stop-color:#F9A51A"/>
			<stop  offset="0.8418" style="stop-color:#BC3581"/>
		</linearGradient>
		<path fill="url(#SVGID_1_)" d="M43.306,25.203c-6.24,1.867-9.218,4.775-8.287,12.822c0.766,5.283,0.319,9.768-0.467,12.796
			c-0.167,0.647-0.333,1.168-0.504,1.621c-0.051,0.183-0.12,0.368-0.21,0.553c-0.471,0.972-1.524,3.02-2.012,3.785
			c-0.366,0.581-1.266,1.524-2.393,1.514c-1.093-0.008-3.481-0.096-4.101-0.096c-0.593,0-1.693,0.067-1.693,0.067
			c1.592,1.714,4.376,3.273,8.133,3.31c2.8,0.03,5.962-0.763,8.988-2.935C51.743,50.763,49.016,30.698,43.306,25.203z"/>
		
			<linearGradient id="SVGID_2_" gradientUnits="userSpaceOnUse" x1="342.2574" y1="-221.5002" x2="342.2574" y2="-189.2185" gradientTransform="matrix(1 0 0 -1 -321 -145.37)">
			<stop  offset="0" style="stop-color:#8FC85B"/>
			<stop  offset="0.2704" style="stop-color:#72BF56"/>
			<stop  offset="1" style="stop-color:#00824A"/>
		</linearGradient>
		<path fill="url(#SVGID_2_)" d="M20.468,44.61c-7.718,2.419-11.716,11.924-8.312,21.452c0.272,0.769,0.593,1.532,0.963,2.297
			c4.759,9.781,14.231,7.553,14.231,7.553s3.427-6.484-2.903-11.519c-4.419-3.518-6.716-7.026-4.587-12.516
			c0.112-0.291,0.246-0.592,0.389-0.894c0.023-0.055,0.046-0.111,0.074-0.169c0.738-1.615,1.847-3.227,2.528-4.217
			c0.461-0.669,1.002-0.998,2.199-1.098c1.113-0.094,3.769-0.034,4.481,0.019c1.03,0.084,1.483,0.25,2.014,1.049
			c0.012,0.019,0.025,0.038,0.037,0.059C30.06,43.793,25.165,43.139,20.468,44.61z"/>
		
			<linearGradient id="SVGID_3_" gradientUnits="userSpaceOnUse" x1="354.5833" y1="-213.4705" x2="338.1655" y2="-197.616" gradientTransform="matrix(1 0 0 -1 -321 -145.37)">
			<stop  offset="0" style="stop-color:#34BDBE"/>
			<stop  offset="0.2615" style="stop-color:#19B9AB"/>
			<stop  offset="0.8872" style="stop-color:#00A081"/>
		</linearGradient>
		<path fill="url(#SVGID_3_)" d="M25.722,58.3c-0.804-0.107-1.47-0.102-1.886-0.261l-0.004-0.005
			c-0.364-0.137-0.704-0.38-0.996-0.81c-0.661-0.973-1.974-3.225-2.43-4.159c-0.494-1.003-0.45-1.453-0.084-2.251
			c0.739-1.615,1.848-3.227,2.529-4.214c0.016-0.022,0.033-0.048,0.048-0.069c-0.32,0.274-2.955,2.545-4.698,4.944
			c-3.206,4.414-2.324,10.513,1.331,14.298c2.672,2.767,5.796,3.335,8.18,3.27c4.38-0.12,8.399-3.56,8.399-3.56
			C34.675,61.265,30.591,58.937,25.722,58.3z"/>
		<g>
			<g>
				
					<linearGradient id="SVGID_4_" gradientUnits="userSpaceOnUse" x1="343.0367" y1="-191.904" x2="343.0367" y2="-214.4188" gradientTransform="matrix(1 0 0 -1 -321 -145.37)">
					<stop  offset="0" style="stop-color:#00542B"/>
					<stop  offset="0.9066" style="stop-color:#00966C"/>
				</linearGradient>
				<path fill="url(#SVGID_4_)" d="M27.711,69.044c0.046,0,0.09-0.005,0.134-0.007c-0.507-1.538-1.524-3.155-3.397-4.644
					c-4.419-3.518-6.716-7.026-4.587-12.516c0.111-0.291,0.246-0.59,0.388-0.893c0.023-0.056,0.047-0.112,0.074-0.17
					c0.739-1.615,1.848-3.227,2.529-4.214c0.016-0.022,0.033-0.045,0.047-0.066c-0.319,0.272-2.954,2.542-4.697,4.941
					c-3.206,4.414-2.324,10.513,1.331,14.298C22.203,68.541,25.327,69.109,27.711,69.044z"/>
			</g>
		</g>
		
			<linearGradient id="SVGID_5_" gradientUnits="userSpaceOnUse" x1="337.4001" y1="-168.5847" x2="347.1047" y2="-204.8025" gradientTransform="matrix(1 0 0 -1 -321 -145.37)">
			<stop  offset="0.0051" style="stop-color:#5ECBF4"/>
			<stop  offset="0.5969" style="stop-color:#00BFF2"/>
		</linearGradient>
		<path fill="url(#SVGID_5_)" d="M39.02,37.528c-2.173-6.03-7.231-11.124-13.788-12.882C14.272,21.712,4.941,25.627,0,32.379
			c0,0,3.672,5.871,13.103,5.372c6.122-0.329,12.489,0.277,16.952,6.628c0.479,0.68,0.924,1.342,1.342,1.981
			c0.047,0.063,0.098,0.133,0.148,0.207c0.501,0.757,1.218,1.837,2.333,3.919c0.375,0.7,0.395,1.608-0.041,2.508
			c-0.471,0.972-1.524,3.02-2.012,3.785c-0.347,0.549-1.167,1.416-2.205,1.506c-0.005,0.002-0.009,0.002-0.014,0.004
			c3.674-0.201,6.684-2.514,8.649-6.022C40.576,48.123,40.792,42.447,39.02,37.528z"/>
		
			<linearGradient id="SVGID_6_" gradientUnits="userSpaceOnUse" x1="336.9667" y1="-177.3151" x2="342.6874" y2="-209.7592" gradientTransform="matrix(1 0 0 -1 -321 -145.37)">
			<stop  offset="0.1582" style="stop-color:#009BDF"/>
			<stop  offset="0.6" style="stop-color:#034EA1"/>
			<stop  offset="1" style="stop-color:#01397E"/>
		</linearGradient>
		<path fill="url(#SVGID_6_)" d="M34.8,39.979c-2.087-3.828-6.943-8.306-15.348-8.306c-11.822,0-18.146,8.879-18.146,17.514
			c0,6.844,3.711,13.637,10.849,16.883c-2.582-10.473,2.042-19.889,12.758-20.555c0.047-0.006,0.091-0.01,0.137-0.015
			c1.113-0.094,3.769-0.034,4.481,0.019c1.03,0.084,1.483,0.25,2.014,1.049c0.501,0.757,1.218,1.839,2.333,3.919
			c0.375,0.7,0.395,1.608-0.041,2.508c-0.41,0.849-1.265,2.512-1.799,3.432c0.115-0.133,2.606-3.053,3.371-4.964
			C37.22,46.941,35.898,41.988,34.8,39.979z"/>
		
			<linearGradient id="SVGID_7_" gradientUnits="userSpaceOnUse" x1="355.9009" y1="-200.2696" x2="355.9009" y2="-182.0545" gradientTransform="matrix(1 0 0 -1 -321 -145.37)">
			<stop  offset="0" style="stop-color:#45317D"/>
			<stop  offset="1" style="stop-color:#AE8870"/>
		</linearGradient>
		<path fill="url(#SVGID_7_)" d="M29.607,58.293c3.674-0.202,6.684-2.517,8.649-6.025c2.321-4.145,2.536-9.82,0.764-14.739
			c-0.812-2.251-2.025-4.372-3.571-6.236c-0.603,1.731-0.754,3.919-0.429,6.733c0.766,5.283,0.319,9.771-0.467,12.796
			c-0.167,0.648-0.333,1.168-0.504,1.624c-0.051,0.183-0.12,0.365-0.21,0.552c-0.471,0.972-1.524,3.018-2.012,3.783
			c-0.347,0.549-1.167,1.419-2.205,1.508L29.607,58.293z"/>
		
			<linearGradient id="SVGID_8_" gradientUnits="userSpaceOnUse" x1="329.6909" y1="-178.0257" x2="357.9355" y2="-194.3326" gradientTransform="matrix(1 0 0 -1 -321 -145.37)">
			<stop  offset="0" style="stop-color:#008BD1"/>
			<stop  offset="0.2029" style="stop-color:#0482CA"/>
			<stop  offset="0.5337" style="stop-color:#0E6AB7"/>
			<stop  offset="0.9491" style="stop-color:#1F4298"/>
			<stop  offset="1" style="stop-color:#213D94"/>
		</linearGradient>
		<path fill="url(#SVGID_8_)" d="M35.409,51.462c1.811-4.521,0.489-9.475-0.609-11.483c-2.087-3.828-6.943-8.306-15.348-8.306
			c-5.71,0-10.137,2.072-13.189,5.188c1.824,0.636,4.085,1.033,6.84,0.891c6.122-0.329,12.489,0.277,16.952,6.628
			c0.479,0.68,0.924,1.342,1.342,1.981l0,0c0.023,0.03,0.046,0.062,0.07,0.094c0.025,0.036,0.052,0.076,0.078,0.113
			c0.501,0.757,1.218,1.839,2.333,3.919c0.375,0.7,0.395,1.608-0.041,2.508c-0.41,0.849-1.265,2.512-1.799,3.432
			C32.153,56.294,34.645,53.374,35.409,51.462z"/>
		
			<linearGradient id="SVGID_9_" gradientUnits="userSpaceOnUse" x1="353.8077" y1="-213.8841" x2="347.6337" y2="-203.3774" gradientTransform="matrix(1 0 0 -1 -321 -145.37)">
			<stop  offset="0" style="stop-color:#D279B0"/>
			<stop  offset="1" style="stop-color:#99258E"/>
		</linearGradient>
		<path fill="url(#SVGID_9_)" d="M42.317,60.293c-1.509-1.006-2.382-3.182-2.306-5.293c0.084-2.289-1.277-1.928-1.277-1.928
			s-2.821,5.165-9.286,5.221c-0.002,0-0.002,0-0.005,0c-1.179-0.01-3.229-0.086-4.089-0.095c-4.134,0.044-8.162,0.836-11.428,4.977
			c0,0,3.454-0.187,10.231,1.901C36.745,68.952,42.968,61.67,42.317,60.293z"/>
		
			<linearGradient id="SVGID_10_" gradientUnits="userSpaceOnUse" x1="356.4329" y1="-207.6295" x2="352.5797" y2="-201.0723" gradientTransform="matrix(1 0 0 -1 -321 -145.37)">
			<stop  offset="0" style="stop-color:#AD3E88"/>
			<stop  offset="0.8" style="stop-color:#992581"/>
		</linearGradient>
		<path fill="url(#SVGID_10_)" d="M38.735,53.069c0,0-2.794,5.115-9.194,5.221c-0.034,0.003-0.072,0.004-0.107,0.003
			c-0.324,0-0.764-0.011-1.234-0.026c-1.061-0.023-2.244-0.062-2.844-0.068c-0.225,0.004-0.449,0.009-0.672,0.015
			c-0.36,0.015-0.718,0.033-0.906,0.043c-0.047,0.005-0.091,0.009-0.136,0.011c1.59,1.713,4.375,3.272,8.131,3.31
			c2.8,0.03,5.962-0.766,8.988-2.935c0.023-0.019,0.042-0.033,0.064-0.049c-0.569-1.044-0.859-2.332-0.812-3.593
			C40.096,52.711,38.735,53.069,38.735,53.069z"/>
		<path fill="#023D85" d="M20.468,44.61c-7.718,2.419-11.716,11.924-8.312,21.454c-2.581-10.47,2.043-19.883,12.758-20.549
			c0.047-0.006,0.091-0.01,0.137-0.015c1.113-0.094,3.769-0.034,4.481,0.019c1.03,0.084,1.483,0.25,2.014,1.049
			c0.012,0.019,0.025,0.038,0.037,0.059C30.06,43.793,25.165,43.139,20.468,44.61z"/>
		
			<linearGradient id="SVGID_11_" gradientUnits="userSpaceOnUse" x1="334.0688" y1="-207.5728" x2="352.6773" y2="-207.5728" gradientTransform="matrix(1 0 0 -1 -321 -145.37)">
			<stop  offset="0" style="stop-color:#564087"/>
			<stop  offset="1" style="stop-color:#8D53A0"/>
		</linearGradient>
		<path fill="url(#SVGID_11_)" d="M36.109,65.484c-1.436-4.219-5.519-6.547-10.387-7.184c-0.321-0.044-0.617-0.066-0.886-0.094
			c-3.951,0.11-7.778,1.002-10.909,4.968c0,0,3.454-0.187,10.231,1.901C29.157,66.614,33.149,66.395,36.109,65.484z"/>
		<path fill="#003579" d="M35.344,41.193c0.239,3.906-0.168,7.225-0.792,9.628c-0.167,0.648-0.333,1.168-0.504,1.621
			c0,0,0,0.005-0.002,0.009c-0.023,0.083-0.05,0.165-0.081,0.247c-0.006,0.019-0.013,0.032-0.02,0.051
			c-0.029,0.072-0.059,0.145-0.093,0.216c-0.004,0.012-0.009,0.021-0.014,0.03c-0.41,0.849-1.262,2.506-1.797,3.43
			c0.136-0.157,2.607-3.06,3.368-4.962C36.921,47.68,36.247,43.603,35.344,41.193z"/>
		<path fill="#5A2E86" d="M25.661,65.495c-0.357-0.37-0.833-0.744-1.284-1.102c-2.165-1.723-3.75-3.44-4.625-5.394
			c-2.094,0.697-4.14,1.951-5.894,4.176c0,0,3.452-0.187,10.231,1.901C24.598,65.232,25.172,65.375,25.661,65.495z"/>
		<g>
			<path fill="#582B6D" d="M29.521,58.293c-0.024,0-0.047,0-0.073,0c-0.002,0-0.002,0-0.005,0c-0.355-0.003-0.79-0.013-1.247-0.023
				c0.473,0.013,0.913,0.023,1.237,0.024C29.463,58.294,29.493,58.293,29.521,58.293z"/>
			<path fill="#582B6D" d="M23.641,58.266c0.044-0.002,0.089-0.006,0.136-0.01c-0.085,0.006-0.138,0.009-0.138,0.009L23.641,58.266z
				"/>
			<path fill="#582B6D" d="M23.641,58.266c0.044-0.002,0.089-0.006,0.136-0.01c-0.085,0.006-0.138,0.009-0.138,0.009L23.641,58.266z
				"/>
			<path fill="#582B6D" d="M24.846,58.21c-0.007-0.003-0.014-0.003-0.018-0.003c-0.048,0.003-0.097,0.005-0.145,0.006
				C24.736,58.212,24.792,58.212,24.846,58.21z"/>
			<path fill="#582B6D" d="M24.846,58.21c-0.007-0.003-0.014-0.003-0.018-0.003c-0.048,0.003-0.097,0.005-0.145,0.006
				C24.736,58.212,24.792,58.212,24.846,58.21z"/>
			<path fill="#6F308C" d="M24.846,58.21c-0.054,0.002-0.109,0.002-0.163,0.003c-0.304,0.011-0.605,0.024-0.906,0.044
				c-0.047,0.004-0.091,0.008-0.136,0.01c1.592,1.713,4.375,3.272,8.131,3.31c0.544,0.008,1.103-0.018,1.67-0.081
				c-1.972-1.749-4.696-2.8-7.721-3.194C25.406,58.256,25.112,58.234,24.846,58.21z"/>
		</g>
	</g>
</g>
<g>
	<path fill="#034EA1" d="M4.234,10.027v0.72h-4.338v-6.39h4.257v0.72H0.706v2.07h2.997v0.675H0.706v2.205H4.234z"/>
	<path fill="#034EA1" d="M7.051,5.869v4.878h-0.81v-6.39h0.63l3.96,4.977V4.366h0.81v6.381h-0.684L7.051,5.869z"/>
	<path fill="#034EA1" d="M14.071,10.747v-6.39h2.214c0.51,0,0.958,0.084,1.346,0.252c0.387,0.168,0.709,0.396,0.967,0.684
		s0.451,0.625,0.581,1.013c0.129,0.387,0.193,0.799,0.193,1.237c0,0.486-0.072,0.926-0.216,1.318
		c-0.144,0.393-0.351,0.729-0.621,1.008s-0.596,0.495-0.977,0.648s-0.806,0.229-1.273,0.229L14.071,10.747L14.071,10.747z
		 M18.553,7.543c0-0.36-0.05-0.691-0.148-0.995c-0.099-0.303-0.246-0.562-0.441-0.778s-0.434-0.385-0.716-0.508
		s-0.603-0.185-0.963-0.185h-1.404v4.95h1.404c0.366,0,0.691-0.063,0.977-0.189c0.285-0.126,0.522-0.3,0.711-0.522
		c0.189-0.222,0.333-0.484,0.432-0.787C18.503,8.226,18.553,7.897,18.553,7.543z"/>
	<path fill="#034EA1" d="M24.006,10.792c-0.45,0-0.859-0.091-1.229-0.274s-0.686-0.426-0.949-0.729
		c-0.264-0.303-0.468-0.649-0.612-1.04S21,7.96,21,7.552c0-0.426,0.077-0.834,0.229-1.224s0.364-0.735,0.634-1.035
		c0.27-0.3,0.59-0.539,0.958-0.715c0.369-0.177,0.77-0.266,1.202-0.266c0.45,0,0.858,0.095,1.224,0.284s0.681,0.437,0.945,0.742
		c0.264,0.306,0.468,0.653,0.612,1.04S27.02,7.16,27.02,7.562c0,0.426-0.077,0.834-0.229,1.224c-0.153,0.39-0.363,0.733-0.63,1.03
		c-0.267,0.297-0.585,0.534-0.954,0.711C24.839,10.704,24.438,10.792,24.006,10.792z M21.819,7.553c0,0.324,0.053,0.637,0.158,0.94
		c0.105,0.303,0.253,0.571,0.445,0.805s0.423,0.42,0.693,0.558s0.57,0.207,0.9,0.207c0.342,0,0.648-0.073,0.918-0.22
		s0.5-0.339,0.688-0.576c0.189-0.237,0.333-0.505,0.432-0.806c0.099-0.3,0.149-0.603,0.149-0.909c0-0.324-0.053-0.638-0.158-0.941
		c-0.105-0.303-0.255-0.57-0.45-0.801c-0.195-0.231-0.426-0.416-0.693-0.554s-0.562-0.207-0.886-0.207
		c-0.342,0-0.648,0.072-0.918,0.216c-0.27,0.144-0.5,0.333-0.689,0.567c-0.189,0.234-0.334,0.501-0.436,0.801
		C21.87,6.934,21.819,7.241,21.819,7.553z"/>
	<path fill="#034EA1" d="M29.046,10.747v-6.39h2.736c0.282,0,0.542,0.059,0.778,0.176c0.237,0.117,0.441,0.273,0.612,0.468
		c0.171,0.195,0.304,0.414,0.4,0.657s0.144,0.49,0.144,0.742c0,0.222-0.032,0.437-0.095,0.644s-0.153,0.395-0.27,0.562
		c-0.115,0.168-0.256,0.312-0.421,0.432s-0.35,0.207-0.553,0.261l1.548,2.448h-0.919l-1.458-2.295h-1.692v2.295
		C29.856,10.747,29.046,10.747,29.046,10.747z M29.856,7.732h1.935c0.168,0,0.32-0.036,0.455-0.108s0.25-0.169,0.347-0.292
		c0.096-0.123,0.171-0.266,0.225-0.427c0.054-0.162,0.081-0.33,0.081-0.504c0-0.18-0.032-0.349-0.095-0.508s-0.147-0.3-0.252-0.423
		s-0.228-0.219-0.369-0.288s-0.29-0.104-0.445-0.104h-1.882V7.732z"/>
	<path fill="#034EA1" d="M39.613,5.699c-0.072-0.084-0.168-0.165-0.288-0.243S39.07,5.308,38.92,5.245s-0.313-0.114-0.49-0.153
		c-0.178-0.039-0.361-0.058-0.554-0.058c-0.498,0-0.862,0.093-1.094,0.279c-0.23,0.186-0.347,0.441-0.347,0.765
		c0,0.174,0.033,0.318,0.1,0.432c0.065,0.114,0.169,0.211,0.311,0.292c0.141,0.081,0.316,0.151,0.526,0.211s0.459,0.123,0.747,0.189
		c0.33,0.072,0.628,0.154,0.896,0.248c0.267,0.093,0.495,0.208,0.684,0.346c0.189,0.138,0.333,0.306,0.433,0.504
		c0.099,0.198,0.148,0.441,0.148,0.729c0,0.306-0.061,0.572-0.181,0.797s-0.283,0.411-0.49,0.558s-0.451,0.255-0.733,0.324
		s-0.588,0.104-0.918,0.104c-0.492,0-0.959-0.077-1.399-0.229c-0.441-0.153-0.842-0.376-1.201-0.67l0.387-0.684
		c0.096,0.102,0.221,0.204,0.373,0.306c0.153,0.102,0.327,0.193,0.522,0.274c0.194,0.081,0.405,0.147,0.63,0.198
		c0.225,0.051,0.46,0.077,0.706,0.077c0.456,0,0.811-0.081,1.062-0.243c0.252-0.162,0.378-0.405,0.378-0.729
		c0-0.18-0.041-0.331-0.121-0.454c-0.081-0.123-0.2-0.229-0.356-0.32c-0.155-0.09-0.35-0.169-0.58-0.238
		c-0.231-0.069-0.493-0.14-0.787-0.211c-0.324-0.078-0.609-0.162-0.855-0.252c-0.246-0.09-0.451-0.198-0.616-0.324
		s-0.29-0.279-0.374-0.459s-0.126-0.396-0.126-0.648c0-0.306,0.058-0.576,0.171-0.81c0.114-0.234,0.273-0.432,0.478-0.594
		c0.204-0.162,0.447-0.283,0.729-0.364s0.588-0.122,0.918-0.122c0.433,0,0.822,0.066,1.171,0.198
		c0.348,0.132,0.656,0.309,0.927,0.531L39.613,5.699z"/>
	<path fill="#034EA1" d="M46.579,10.027v0.72h-4.338v-6.39h4.257v0.72h-3.446v2.07h2.996v0.675h-2.996v2.205H46.579z"/>
	<path fill="#034EA1" d="M48.585,10.747v-6.39h2.214c0.51,0,0.959,0.084,1.346,0.252c0.387,0.168,0.71,0.396,0.968,0.684
		s0.451,0.625,0.58,1.013c0.129,0.387,0.193,0.799,0.193,1.237c0,0.486-0.071,0.926-0.216,1.318
		c-0.144,0.393-0.351,0.729-0.621,1.008c-0.27,0.279-0.596,0.495-0.977,0.648s-0.806,0.229-1.273,0.229L48.585,10.747L48.585,10.747
		z M53.068,7.543c0-0.36-0.05-0.691-0.148-0.995c-0.1-0.303-0.246-0.562-0.441-0.778s-0.434-0.385-0.716-0.508
		S51.16,5.077,50.8,5.077h-1.404v4.95h1.403c0.366,0,0.691-0.063,0.977-0.189s0.522-0.3,0.711-0.522s0.333-0.484,0.433-0.787
		C53.018,8.226,53.068,7.897,53.068,7.543z"/>
	<path fill="#034EA1" d="M64.011,9.1c0,0.246-0.049,0.471-0.148,0.675c-0.099,0.204-0.233,0.378-0.404,0.522
		c-0.172,0.144-0.369,0.255-0.595,0.333c-0.225,0.078-0.467,0.117-0.725,0.117h-3.032v-6.39h3.177c0.222,0,0.423,0.048,0.603,0.144
		c0.181,0.096,0.333,0.221,0.459,0.374s0.224,0.327,0.293,0.522c0.068,0.195,0.104,0.392,0.104,0.589
		c0,0.318-0.08,0.612-0.238,0.882c-0.159,0.27-0.386,0.471-0.68,0.603c0.366,0.108,0.655,0.308,0.868,0.598
		C63.905,8.361,64.011,8.704,64.011,9.1z M59.917,5.059v2.133h2.034c0.144,0,0.275-0.028,0.396-0.085
		c0.12-0.057,0.224-0.133,0.311-0.229s0.156-0.208,0.207-0.337s0.077-0.266,0.077-0.41c0-0.15-0.024-0.291-0.072-0.423
		s-0.112-0.246-0.193-0.342s-0.181-0.171-0.297-0.225c-0.117-0.054-0.242-0.081-0.374-0.081h-2.089V5.059z M63.193,8.956
		c0-0.144-0.026-0.284-0.077-0.418c-0.051-0.135-0.12-0.253-0.207-0.355S62.719,8,62.598,7.94c-0.12-0.06-0.252-0.09-0.396-0.09
		h-2.286v2.196h2.223c0.15,0,0.288-0.03,0.414-0.09s0.237-0.14,0.333-0.238c0.097-0.099,0.171-0.215,0.226-0.347
		C63.166,9.239,63.193,9.1,63.193,8.956z"/>
	<path fill="#034EA1" d="M66.009,4.357l1.935,3.33l1.953-3.33h0.882l-2.43,4.059v2.331h-0.81V8.398l-2.421-4.041
		C65.118,4.357,66.009,4.357,66.009,4.357z"/>
</g>
</svg>
