<?xml version="1.0" encoding="utf-8"?>
<!-- Generator: Adobe Illustrator 17.0.0, SVG Export Plug-In . SVG Version: 6.00 Build 0)  -->
<!DOCTYPE svg PUBLIC "-//W3C//DTD SVG 1.1//EN" "http://www.w3.org/Graphics/SVG/1.1/DTD/svg11.dtd">
<svg version="1.1" id="Artwork" xmlns="http://www.w3.org/2000/svg" xmlns:xlink="http://www.w3.org/1999/xlink" x="0px" y="0px"
	 width="168.695px" height="76.13px" viewBox="0 0 168.695 76.13" enable-background="new 0 0 168.695 76.13" xml:space="preserve">
<g>
	<path fill="#FFFFFF" d="M4.338,9.939v0.72H0v-6.39h4.257v0.72H0.81v2.07h2.997v0.675H0.81v2.205H4.338z"/>
	<path fill="#FFFFFF" d="M7.155,5.781v4.878h-0.81v-6.39h0.63l3.96,4.977V4.278h0.81v6.381h-0.684L7.155,5.781z"/>
	<path fill="#FFFFFF" d="M14.175,10.659v-6.39h2.214c0.51,0,0.958,0.084,1.346,0.252c0.387,0.168,0.709,0.396,0.967,0.684
		s0.451,0.625,0.581,1.013c0.129,0.387,0.193,0.799,0.193,1.237c0,0.486-0.072,0.926-0.216,1.318
		c-0.144,0.393-0.351,0.729-0.621,1.008s-0.596,0.495-0.977,0.648s-0.806,0.229-1.273,0.229L14.175,10.659L14.175,10.659z
		 M18.657,7.455c0-0.36-0.05-0.691-0.148-0.995c-0.099-0.303-0.246-0.562-0.441-0.778s-0.434-0.385-0.716-0.508
		s-0.603-0.185-0.963-0.185h-1.404v4.95h1.404c0.366,0,0.691-0.063,0.977-0.189c0.285-0.126,0.522-0.3,0.711-0.522
		c0.189-0.222,0.333-0.484,0.432-0.787C18.607,8.138,18.657,7.809,18.657,7.455z"/>
	<path fill="#FFFFFF" d="M24.11,10.704c-0.45,0-0.859-0.091-1.229-0.274s-0.686-0.426-0.949-0.729
		c-0.264-0.303-0.468-0.649-0.612-1.04s-0.216-0.789-0.216-1.197c0-0.426,0.077-0.834,0.229-1.224s0.364-0.735,0.634-1.035
		c0.27-0.3,0.59-0.539,0.958-0.715c0.369-0.177,0.77-0.266,1.202-0.266c0.45,0,0.858,0.095,1.224,0.284s0.681,0.437,0.945,0.742
		c0.264,0.306,0.468,0.653,0.612,1.04s0.216,0.782,0.216,1.184c0,0.426-0.077,0.834-0.229,1.224c-0.153,0.39-0.363,0.733-0.63,1.03
		c-0.267,0.297-0.585,0.534-0.954,0.711C24.943,10.616,24.542,10.704,24.11,10.704z M21.923,7.465c0,0.324,0.053,0.637,0.158,0.94
		c0.105,0.303,0.253,0.571,0.445,0.805s0.423,0.42,0.693,0.558s0.57,0.207,0.9,0.207c0.342,0,0.648-0.073,0.918-0.22
		s0.5-0.339,0.688-0.576c0.189-0.237,0.333-0.505,0.432-0.806c0.099-0.3,0.149-0.603,0.149-0.909c0-0.324-0.053-0.638-0.158-0.941
		c-0.105-0.303-0.255-0.57-0.45-0.801c-0.195-0.231-0.426-0.416-0.693-0.554s-0.562-0.207-0.886-0.207
		c-0.342,0-0.648,0.072-0.918,0.216c-0.27,0.144-0.5,0.333-0.689,0.567c-0.189,0.234-0.334,0.501-0.436,0.801
		C21.974,6.846,21.923,7.153,21.923,7.465z"/>
	<path fill="#FFFFFF" d="M29.15,10.659v-6.39h2.736c0.282,0,0.542,0.059,0.778,0.176c0.237,0.117,0.441,0.273,0.612,0.468
		c0.171,0.195,0.304,0.414,0.4,0.657s0.144,0.49,0.144,0.742c0,0.222-0.032,0.437-0.095,0.644s-0.153,0.395-0.27,0.562
		C33.34,7.686,33.199,7.83,33.034,7.95s-0.35,0.207-0.553,0.261l1.548,2.448H33.11l-1.458-2.295H29.96v2.295
		C29.96,10.659,29.15,10.659,29.15,10.659z M29.96,7.644h1.935c0.168,0,0.32-0.036,0.455-0.108s0.25-0.169,0.347-0.292
		c0.096-0.123,0.171-0.266,0.225-0.427c0.054-0.162,0.081-0.33,0.081-0.504c0-0.18-0.032-0.349-0.095-0.508s-0.147-0.3-0.252-0.423
		s-0.228-0.219-0.369-0.288s-0.29-0.104-0.445-0.104H29.96V7.644z"/>
	<path fill="#FFFFFF" d="M39.717,5.611c-0.072-0.084-0.168-0.165-0.288-0.243s-0.255-0.148-0.405-0.211s-0.313-0.114-0.49-0.153
		c-0.178-0.039-0.361-0.058-0.554-0.058c-0.498,0-0.862,0.093-1.094,0.279c-0.23,0.186-0.347,0.441-0.347,0.765
		c0,0.174,0.033,0.318,0.1,0.432c0.065,0.114,0.169,0.211,0.311,0.292c0.141,0.081,0.316,0.151,0.526,0.211s0.459,0.123,0.747,0.189
		c0.33,0.072,0.628,0.154,0.896,0.248c0.267,0.093,0.495,0.208,0.684,0.346c0.189,0.138,0.333,0.306,0.433,0.504
		c0.099,0.198,0.148,0.441,0.148,0.729c0,0.306-0.061,0.572-0.181,0.797s-0.283,0.411-0.49,0.558s-0.451,0.255-0.733,0.324
		s-0.588,0.104-0.918,0.104c-0.492,0-0.959-0.077-1.399-0.229c-0.441-0.153-0.842-0.376-1.201-0.67l0.387-0.684
		c0.096,0.102,0.221,0.204,0.373,0.306c0.153,0.102,0.327,0.193,0.522,0.274c0.194,0.081,0.405,0.147,0.63,0.198
		c0.225,0.051,0.46,0.077,0.706,0.077c0.456,0,0.811-0.081,1.062-0.243c0.252-0.162,0.378-0.405,0.378-0.729
		c0-0.18-0.041-0.331-0.121-0.454c-0.081-0.123-0.2-0.229-0.356-0.32c-0.155-0.09-0.35-0.169-0.58-0.238
		c-0.231-0.069-0.493-0.14-0.787-0.211c-0.324-0.078-0.609-0.162-0.855-0.252c-0.246-0.09-0.451-0.198-0.616-0.324
		s-0.29-0.279-0.374-0.459s-0.126-0.396-0.126-0.648c0-0.306,0.058-0.576,0.171-0.81c0.114-0.234,0.273-0.432,0.478-0.594
		c0.204-0.162,0.447-0.283,0.729-0.364s0.588-0.122,0.918-0.122c0.433,0,0.822,0.066,1.171,0.198
		c0.348,0.132,0.656,0.309,0.927,0.531L39.717,5.611z"/>
	<path fill="#FFFFFF" d="M46.683,9.939v0.72h-4.338v-6.39h4.257v0.72h-3.446v2.07h2.996v0.675h-2.996v2.205H46.683z"/>
	<path fill="#FFFFFF" d="M48.689,10.659v-6.39h2.214c0.51,0,0.959,0.084,1.346,0.252c0.387,0.168,0.71,0.396,0.968,0.684
		s0.451,0.625,0.58,1.013c0.129,0.387,0.193,0.799,0.193,1.237c0,0.486-0.071,0.926-0.216,1.318
		c-0.144,0.393-0.351,0.729-0.621,1.008c-0.27,0.279-0.596,0.495-0.977,0.648s-0.806,0.229-1.273,0.229L48.689,10.659L48.689,10.659
		z M53.172,7.455c0-0.36-0.05-0.691-0.148-0.995c-0.1-0.303-0.246-0.562-0.441-0.778s-0.434-0.385-0.716-0.508
		s-0.603-0.185-0.963-0.185H49.5v4.95h1.403c0.366,0,0.691-0.063,0.977-0.189s0.522-0.3,0.711-0.522s0.333-0.484,0.433-0.787
		C53.122,8.138,53.172,7.809,53.172,7.455z"/>
	<path fill="#FFFFFF" d="M64.115,9.012c0,0.246-0.049,0.471-0.148,0.675c-0.099,0.204-0.233,0.378-0.404,0.522
		c-0.172,0.144-0.369,0.255-0.595,0.333c-0.225,0.078-0.467,0.117-0.725,0.117h-3.032v-6.39h3.177c0.222,0,0.423,0.048,0.603,0.144
		c0.181,0.096,0.333,0.221,0.459,0.374s0.224,0.327,0.293,0.522c0.068,0.195,0.104,0.392,0.104,0.589
		c0,0.318-0.08,0.612-0.238,0.882c-0.159,0.27-0.386,0.471-0.68,0.603c0.366,0.108,0.655,0.308,0.868,0.598
		C64.009,8.273,64.115,8.616,64.115,9.012z M60.021,4.971v2.133h2.034c0.144,0,0.275-0.028,0.396-0.085
		c0.12-0.057,0.224-0.133,0.311-0.229s0.156-0.208,0.207-0.337s0.077-0.266,0.077-0.41c0-0.15-0.024-0.291-0.072-0.423
		s-0.112-0.246-0.193-0.342S62.6,5.107,62.484,5.053c-0.117-0.054-0.242-0.081-0.374-0.081h-2.089V4.971z M63.297,8.868
		c0-0.144-0.026-0.284-0.077-0.418c-0.051-0.135-0.12-0.253-0.207-0.355s-0.19-0.183-0.311-0.243c-0.12-0.06-0.252-0.09-0.396-0.09
		H60.02v2.196h2.223c0.15,0,0.288-0.03,0.414-0.09s0.237-0.14,0.333-0.238c0.097-0.099,0.171-0.215,0.226-0.347
		C63.27,9.151,63.297,9.012,63.297,8.868z"/>
	<path fill="#FFFFFF" d="M66.113,4.269l1.935,3.33l1.953-3.33h0.882l-2.43,4.059v2.331h-0.81V8.31l-2.421-4.041
		C65.222,4.269,66.113,4.269,66.113,4.269z"/>
</g>
<g>
	<path fill="#FFFFFF" d="M43.554,24.912c-4.08,1.221-6.771,2.885-7.9,6.123c-2.605-3.149-6.145-5.576-10.278-6.682
		C14.353,21.399,4.968,25.337,0,32.13c0,0,1.854,2.955,6.298,4.506c-3.285,3.354-4.985,7.908-4.985,12.398
		c0,6.881,3.734,13.716,10.913,16.98c-0.003-0.009-0.004-0.015-0.006-0.023c0.002,0.005,0.002,0.011,0.006,0.016
		c0.273,0.771,0.594,1.54,0.968,2.308c4.787,9.838,14.313,7.597,14.313,7.597s1.708-3.233,0.498-6.915
		c4.352-0.185,8.312-3.572,8.312-3.572c0,0,0-0.001,0-0.001c4.518-1.392,6.637-4.385,6.243-5.22
		c-0.61-0.407-1.115-1.006-1.497-1.713C52.027,50.535,49.285,30.425,43.554,24.912z"/>
	<path fill="#FFFFFF" d="M64.747,43.54c-2.61-1.15-5.781-1.222-7.559-1.15c-3.674,0.144-4.83,0.461-4.83,0.461v17.638
		c0,0.212,0.133,0.4,0.328,0.465c0.01,0.005,1.66,0.494,4.535,0.571c3.697,0.097,6.395-0.394,8.409-1.741
		c2.703-1.808,4.033-4.379,4.033-8.139C69.663,47.704,68.01,44.977,64.747,43.54z M59.906,57.418
		c-1.565,0.068-2.531-0.04-2.979-0.172l0.002-10.653c0.494-0.078,1.615-0.18,3.108-0.124c1.865,0.072,4.996,0.733,4.996,4.986
		C65.033,55.89,61.837,57.335,59.906,57.418z M79.383,49.78c-0.083-0.026-0.158-0.049-0.224-0.072
		c-1.304-0.437-2.377-1.104-2.428-2.002c-0.026-0.487,0.15-0.921,0.403-1.191c0.367-0.388,1.033-0.539,1.451-0.539
		c2.054,0,3.963,0.974,3.963,0.974l1.131-3.025c0.041-0.121,0.037-0.257-0.016-0.371c-0.055-0.118-0.157-0.21-0.279-0.253
		l-0.024-0.007c-0.99-0.371-2.775-0.918-4.829-0.949c-3.987-0.054-6.381,1.971-6.381,5.268c0,3.892,3.281,5.158,4.36,5.595
		c0.184,0.077,0.388,0.154,0.601,0.236c0.715,0.27,1.507,0.608,2.11,0.983c0.659,0.411,0.8,1.168,0.696,1.665
		c-0.3,1.437-1.877,1.747-3.138,1.558c-2.404-0.359-3.665-1.025-3.665-1.025l-1.032,3.05c-0.075,0.223,0.022,0.468,0.229,0.582
		c0.019,0.011,2.222,1.126,5.047,1.126c3.229,0,6.998-1.537,6.998-5.881C84.356,51.505,80.893,50.261,79.383,49.78z M108.637,43.245
		v17.422c0,0.13-0.051,0.253-0.144,0.345c-0.092,0.087-0.216,0.139-0.341,0.139l-4.08,0.005c0,0,0.026-7.18,0-8.609
		c-0.017-0.942,0.276-3.822,0.382-4.309c0-0.004,0-0.02,0.003-0.033c-0.016-0.075-0.08-0.053-0.099-0.04
		c-0.009,0.007-0.023,0.025-0.023,0.025l-4.628,7.466c-0.026,0.05-0.056,0.093-0.094,0.133c-0.09,0.091-0.214,0.141-0.343,0.141
		l-1.137-0.004h-0.003l-1.139,0.004c-0.128,0-0.253-0.049-0.344-0.141c-0.037-0.04-0.066-0.083-0.093-0.133l-4.628-7.466
		c0,0-0.015-0.018-0.022-0.025c-0.02-0.013-0.083-0.035-0.1,0.04c0,0.013,0,0.029,0.001,0.033c0.105,0.486,0.4,3.366,0.382,4.309
		c-0.025,1.43,0,8.609,0,8.609l-4.079-0.005c-0.126,0-0.25-0.051-0.342-0.139c-0.093-0.092-0.145-0.215-0.145-0.345V43.245
		c0-0.266,0.22-0.481,0.487-0.481h4.928c0.205,0,0.365,0.106,0.47,0.276c0,0,3.484,5.995,3.899,6.712
		c0.267,0.455,0.662,1.514,0.661,1.577v0.003l0,0c0,0.003,0,0.006,0,0.006h0.002c0.003,0.032,0.028,0.055,0.06,0.056l0,0
		c0,0,0.001,0,0.002,0h0.002l0,0c0.031-0.001,0.057-0.025,0.06-0.056h0.003c0,0,0-0.003,0-0.006l0,0v-0.003
		c-0.003-0.063,0.393-1.122,0.658-1.577c0.417-0.717,3.901-6.712,3.901-6.712c0.107-0.169,0.265-0.276,0.472-0.276h4.928
		C108.419,42.764,108.637,42.979,108.637,43.245z"/>
	<g>
		<path fill="#FFFFFF" d="M53.842,70.793h-1.469v-5.059h1.338c0.753,0,1.016,0.05,1.331,0.248c0.38,0.242,0.57,0.571,0.57,0.993
			c0,0.542-0.307,0.944-0.871,1.107c0.842,0.205,1.076,0.774,1.076,1.279C55.817,70.362,55.122,70.793,53.842,70.793z
			 M54.317,66.479c-0.104-0.037-0.234-0.058-0.476-0.058h-0.651v1.38h0.716c0.306,0,0.46-0.02,0.622-0.188
			c0.153-0.161,0.197-0.373,0.197-0.505C54.726,66.815,54.558,66.567,54.317,66.479z M54.412,68.541
			c-0.125-0.037-0.227-0.043-0.467-0.043h-0.739v1.6h0.76c0.643,0,0.921-0.365,0.921-0.818
			C54.887,68.921,54.689,68.621,54.412,68.541z"/>
		<path fill="#FFFFFF" d="M59.297,70.793l-0.438-0.782c-0.352-0.622-0.586-0.973-0.864-1.251c-0.094-0.096-0.168-0.146-0.328-0.154
			v2.187H56.84v-5.059h1.543c1.133,0,1.646,0.657,1.646,1.447c0,0.723-0.468,1.389-1.258,1.389c0.183,0.095,0.52,0.585,0.782,1.009
			l0.746,1.213H59.297z M58.127,66.414h-0.461v1.6h0.432c0.439,0,0.672-0.059,0.827-0.213c0.139-0.138,0.226-0.349,0.226-0.613
			C59.15,66.677,58.872,66.414,58.127,66.414z"/>
		<path fill="#FFFFFF" d="M61.104,70.793v-5.059h0.863v5.059H61.104z"/>
		<path fill="#FFFFFF" d="M65.206,70.859c-0.709,0-1.258-0.227-1.652-0.717c-0.387-0.475-0.563-1.045-0.563-1.842
			c0-1.039,0.314-1.762,0.951-2.237c0.364-0.279,0.76-0.395,1.25-0.395c0.578,0,1.089,0.175,1.506,0.534l-0.424,0.527
			c-0.351-0.27-0.68-0.388-1.067-0.388c-0.936,0-1.28,0.819-1.28,2.003c0,0.709,0.132,1.207,0.373,1.492
			c0.205,0.241,0.571,0.38,0.959,0.38c0.263,0,0.482-0.058,0.672-0.162v-1.315h-0.863l-0.117-0.688h1.835v2.383
			C66.325,70.713,65.769,70.859,65.206,70.859z"/>
		<path fill="#FFFFFF" d="M70.515,70.793v-2.339h-1.726v2.339h-0.834v-5.059h0.834v2.032h1.726v-2.032h0.847v5.059H70.515z"/>
		<path fill="#FFFFFF" d="M75.524,66.435h-1.273v4.358h-0.841v-4.358h-1.28v-0.701h3.504L75.524,66.435z"/>
		<path fill="#FFFFFF" d="M79.049,70.889c-0.578,0-1.163-0.154-1.659-0.454l0.321-0.643c0.453,0.263,0.855,0.418,1.368,0.418
			c0.621,0,0.995-0.302,0.995-0.805c0-0.374-0.235-0.606-0.753-0.753l-0.542-0.153c-0.46-0.132-0.79-0.323-0.98-0.607
			c-0.139-0.205-0.211-0.447-0.211-0.74c0-0.892,0.702-1.498,1.718-1.498c0.578,0,1.156,0.167,1.602,0.483l-0.38,0.593
			c-0.468-0.278-0.79-0.388-1.192-0.388c-0.497,0-0.826,0.271-0.826,0.687c0,0.315,0.175,0.476,0.672,0.62l0.6,0.177
			c0.732,0.211,1.243,0.679,1.243,1.44C81.023,70.105,80.342,70.889,79.049,70.889z"/>
		<path fill="#FFFFFF" d="M83.97,70.874c-0.672,0-1.205-0.256-1.6-0.732c-0.38-0.461-0.578-1.075-0.578-1.805
			c0-0.607,0.11-1.112,0.336-1.536c0.38-0.724,1.075-1.163,1.864-1.163c0.491,0,0.959,0.146,1.258,0.394l-0.388,0.557
			c-0.271-0.198-0.548-0.286-0.863-0.286c-0.43,0-0.789,0.22-1.009,0.607c-0.176,0.307-0.263,0.731-0.263,1.331
			c0,0.621,0.065,0.973,0.197,1.258c0.219,0.482,0.636,0.716,1.127,0.716c0.357,0,0.62-0.095,0.906-0.322l0.396,0.534
			C84.957,70.727,84.511,70.874,83.97,70.874z"/>
		<path fill="#FFFFFF" d="M86.157,70.793v-5.059h0.863v5.059H86.157z"/>
		<path fill="#FFFFFF" d="M88.264,70.793v-5.059h2.808l-0.11,0.687h-1.857v1.38h1.558v0.697H89.12v1.578h2.024v0.717H88.264z"/>
		<path fill="#FFFFFF" d="M94.53,70.793l-1.134-2.376c-0.27-0.562-0.548-1.199-0.642-1.499l-0.022,0.021
			c0.036,0.424,0.044,0.908,0.052,1.404l0.028,2.45h-0.825v-5.059h0.95l1.228,2.472c0.234,0.467,0.453,1.066,0.519,1.3l0.022-0.022
			c-0.022-0.256-0.072-0.979-0.072-1.439l-0.015-2.31h0.798v5.059H94.53z"/>
		<path fill="#FFFFFF" d="M98.619,70.874c-0.673,0-1.207-0.256-1.602-0.732c-0.38-0.461-0.577-1.075-0.577-1.805
			c0-0.607,0.109-1.112,0.336-1.536c0.38-0.724,1.075-1.163,1.864-1.163c0.489,0,0.957,0.146,1.257,0.394l-0.387,0.557
			c-0.271-0.198-0.55-0.286-0.863-0.286c-0.431,0-0.79,0.22-1.009,0.607c-0.175,0.307-0.264,0.731-0.264,1.331
			c0,0.621,0.066,0.973,0.198,1.258c0.22,0.482,0.636,0.716,1.125,0.716c0.358,0,0.621-0.095,0.906-0.322L100,70.427
			C99.605,70.727,99.159,70.874,98.619,70.874z"/>
		<path fill="#FFFFFF" d="M100.805,70.793v-5.059h2.809l-0.109,0.687h-1.858v1.38h1.557v0.697h-1.543v1.578h2.025v0.717H100.805z"/>
		<path fill="#FFFFFF" d="M104.959,70.903c-0.321,0-0.578-0.271-0.578-0.6c0-0.321,0.248-0.577,0.563-0.577
			c0.322,0,0.585,0.256,0.585,0.577C105.529,70.632,105.265,70.903,104.959,70.903z"/>
		<path fill="#FFFFFF" d="M109.742,70.793h-1.471v-5.059h1.339c0.753,0,1.016,0.05,1.331,0.248c0.38,0.242,0.57,0.571,0.57,0.993
			c0,0.542-0.307,0.944-0.87,1.107c0.841,0.205,1.075,0.774,1.075,1.279C111.715,70.362,111.021,70.793,109.742,70.793z
			 M110.216,66.479c-0.102-0.037-0.234-0.058-0.474-0.058h-0.651v1.38h0.716c0.307,0,0.461-0.02,0.622-0.188
			c0.153-0.161,0.198-0.373,0.198-0.505C110.626,66.815,110.458,66.567,110.216,66.479z M110.311,68.541
			c-0.124-0.037-0.226-0.043-0.468-0.043h-0.739v1.6h0.761c0.642,0,0.922-0.365,0.922-0.818
			C110.788,68.921,110.588,68.621,110.311,68.541z"/>
		<path fill="#FFFFFF" d="M115.196,70.793l-0.439-0.782c-0.351-0.622-0.584-0.973-0.863-1.251c-0.095-0.096-0.169-0.146-0.329-0.154
			v2.187h-0.827v-5.059h1.544c1.133,0,1.645,0.657,1.645,1.447c0,0.723-0.468,1.389-1.258,1.389
			c0.184,0.095,0.519,0.585,0.783,1.009l0.745,1.213H115.196z M114.027,66.414h-0.461v1.6h0.432c0.438,0,0.671-0.059,0.825-0.213
			c0.139-0.138,0.227-0.349,0.227-0.613C115.05,66.677,114.772,66.414,114.027,66.414z"/>
		<path fill="#FFFFFF" d="M117.003,70.793v-5.059h0.863v5.059H117.003z"/>
		<path fill="#FFFFFF" d="M121.106,70.859c-0.71,0-1.259-0.227-1.653-0.717c-0.388-0.475-0.564-1.045-0.564-1.842
			c0-1.039,0.315-1.762,0.951-2.237c0.365-0.279,0.761-0.395,1.25-0.395c0.578,0,1.089,0.175,1.506,0.534l-0.424,0.527
			c-0.351-0.27-0.679-0.388-1.067-0.388c-0.937,0-1.28,0.819-1.28,2.003c0,0.709,0.132,1.207,0.372,1.492
			c0.204,0.241,0.571,0.38,0.958,0.38c0.263,0,0.482-0.058,0.671-0.162v-1.315h-0.862l-0.116-0.688h1.835v2.383
			C122.225,70.713,121.669,70.859,121.106,70.859z"/>
		<path fill="#FFFFFF" d="M126.414,70.793v-2.339h-1.725v2.339h-0.833v-5.059h0.833v2.032h1.725v-2.032h0.848v5.059H126.414z"/>
		<path fill="#FFFFFF" d="M131.424,66.435h-1.272v4.358h-0.841v-4.358h-1.28v-0.701h3.503L131.424,66.435z"/>
		<path fill="#FFFFFF" d="M132.046,70.793v-5.059h2.808l-0.11,0.687h-1.857v1.38h1.558v0.697h-1.543v1.578h2.026v0.717H132.046z"/>
		<path fill="#FFFFFF" d="M138.225,70.793l-0.438-0.782c-0.352-0.622-0.585-0.973-0.864-1.251c-0.094-0.096-0.168-0.146-0.329-0.154
			v2.187h-0.827v-5.059h1.543c1.134,0,1.646,0.657,1.646,1.447c0,0.723-0.468,1.389-1.258,1.389
			c0.182,0.095,0.519,0.585,0.782,1.009l0.746,1.213H138.225z M137.055,66.414h-0.461v1.6h0.432c0.438,0,0.672-0.059,0.825-0.213
			c0.14-0.138,0.228-0.349,0.228-0.613C138.079,66.677,137.801,66.414,137.055,66.414z"/>
		<path fill="#FFFFFF" d="M144.265,70.793h-2.588v-5.059h0.856v4.364h1.871L144.265,70.793z"/>
		<path fill="#FFFFFF" d="M145.135,70.793v-5.059h0.863v5.059H145.135z"/>
		<path fill="#FFFFFF" d="M149.07,70.815h-0.783l-1.702-5.081h0.921l0.913,2.865c0.132,0.402,0.219,0.769,0.263,1.017h0.015
			c0.058-0.242,0.131-0.534,0.307-1.06l0.927-2.822h0.878L149.07,70.815z"/>
		<path fill="#FFFFFF" d="M151.395,70.793v-5.059h0.863v5.059H151.395z"/>
		<path fill="#FFFFFF" d="M156.046,70.793l-1.134-2.376c-0.27-0.562-0.548-1.199-0.643-1.499l-0.022,0.021
			c0.037,0.424,0.045,0.908,0.052,1.404l0.03,2.45h-0.827v-5.059h0.951l1.228,2.472c0.235,0.467,0.454,1.066,0.519,1.3l0.022-0.022
			c-0.022-0.256-0.073-0.979-0.073-1.439l-0.013-2.31h0.796v5.059H156.046z"/>
		<path fill="#FFFFFF" d="M160.171,70.859c-0.71,0-1.258-0.227-1.652-0.717c-0.388-0.475-0.563-1.045-0.563-1.842
			c0-1.039,0.314-1.762,0.951-2.237c0.364-0.279,0.761-0.395,1.251-0.395c0.577,0,1.089,0.175,1.506,0.534l-0.424,0.527
			c-0.351-0.27-0.681-0.388-1.068-0.388c-0.935,0-1.28,0.819-1.28,2.003c0,0.709,0.131,1.207,0.373,1.492
			c0.204,0.241,0.57,0.38,0.957,0.38c0.263,0,0.483-0.058,0.673-0.162v-1.315h-0.863l-0.117-0.688h1.835v2.383
			C161.289,70.713,160.733,70.859,160.171,70.859z"/>
		<path fill="#FFFFFF" d="M163.352,70.903c-0.321,0-0.577-0.271-0.577-0.6c0-0.321,0.248-0.577,0.561-0.577
			c0.323,0,0.586,0.256,0.586,0.577C163.923,70.632,163.659,70.903,163.352,70.903z"/>
	</g>
	<g>
		<linearGradient id="SVGID_1_" gradientUnits="userSpaceOnUse" x1="48.0196" y1="28.2474" x2="29.8056" y2="61.6396">
			<stop  offset="0" style="stop-color:#B3B3B3"/>
			<stop  offset="0.12" style="stop-color:#A7A7A7"/>
			<stop  offset="0.8418" style="stop-color:#525252"/>
		</linearGradient>
		<path fill="url(#SVGID_1_)" d="M43.195,25.616c-6.098,1.824-9.008,4.666-8.097,12.528c0.748,5.164,0.31,9.546-0.457,12.505
			c-0.164,0.634-0.326,1.143-0.493,1.585c-0.05,0.179-0.118,0.36-0.206,0.539c-0.46,0.95-1.49,2.951-1.966,3.7
			c-0.358,0.568-1.237,1.489-2.338,1.479c-1.068-0.008-3.401-0.093-4.007-0.093c-0.58,0-1.655,0.066-1.655,0.066
			c1.555,1.674,4.277,3.199,7.948,3.235c2.736,0.028,5.827-0.748,8.783-2.87C51.44,50.594,48.776,30.986,43.195,25.616z"/>
		<linearGradient id="SVGID_2_" gradientUnits="userSpaceOnUse" x1="21.6502" y1="75.381" x2="21.6502" y2="43.8362">
			<stop  offset="0" style="stop-color:#C3C3C3"/>
			<stop  offset="0.2086" style="stop-color:#8C8C8C"/>
			<stop  offset="0.7975" style="stop-color:#474747"/>
		</linearGradient>
		<path fill="url(#SVGID_2_)" d="M20.879,44.58c-7.542,2.363-11.449,11.653-8.123,20.964c0.267,0.75,0.578,1.497,0.942,2.242
			c4.651,9.559,13.906,7.381,13.906,7.381s3.349-6.337-2.836-11.256c-4.318-3.435-6.563-6.865-4.483-12.229
			c0.109-0.284,0.241-0.577,0.38-0.873c0.023-0.053,0.046-0.108,0.073-0.165c0.721-1.578,1.805-3.153,2.47-4.12
			c0.451-0.655,0.979-0.975,2.149-1.074c1.087-0.092,3.683-0.033,4.379,0.019c1.008,0.081,1.448,0.245,1.968,1.024
			c0.012,0.02,0.024,0.038,0.037,0.058C30.251,43.782,25.468,43.143,20.879,44.58z"/>
		<linearGradient id="SVGID_3_" gradientUnits="userSpaceOnUse" x1="33.6939" y1="67.5359" x2="17.651" y2="52.0435">
			<stop  offset="0" style="stop-color:#8F8F8F"/>
			<stop  offset="0.2615" style="stop-color:#999999"/>
			<stop  offset="0.8872" style="stop-color:#707070"/>
		</linearGradient>
		<path fill="url(#SVGID_3_)" d="M26.013,57.958c-0.785-0.104-1.436-0.098-1.843-0.254L24.167,57.7
			c-0.356-0.134-0.689-0.372-0.974-0.791c-0.647-0.952-1.928-3.152-2.375-4.064c-0.483-0.982-0.439-1.42-0.082-2.201
			c0.723-1.578,1.807-3.153,2.471-4.118c0.016-0.022,0.032-0.046,0.047-0.067c-0.314,0.267-2.888,2.486-4.591,4.83
			c-3.135,4.313-2.271,10.274,1.299,13.971c2.612,2.703,5.664,3.259,7.994,3.195c4.279-0.117,8.207-3.477,8.207-3.477
			C34.761,60.855,30.771,58.579,26.013,57.958z"/>
		<g>
			<g>
				<linearGradient id="SVGID_4_" gradientUnits="userSpaceOnUse" x1="22.4105" y1="46.4612" x2="22.4105" y2="68.4609">
					<stop  offset="0" style="stop-color:#212121"/>
					<stop  offset="0.2571" style="stop-color:#242424"/>
					<stop  offset="0.473" style="stop-color:#2F2F2F"/>
					<stop  offset="0.6742" style="stop-color:#404040"/>
					<stop  offset="0.8652" style="stop-color:#595959"/>
					<stop  offset="0.9939" style="stop-color:#6E6E6E"/>
				</linearGradient>
				<path fill="url(#SVGID_4_)" d="M27.957,68.456c0.045,0,0.087-0.004,0.13-0.006c-0.495-1.503-1.489-3.083-3.32-4.539
					c-4.318-3.435-6.563-6.865-4.483-12.229c0.108-0.284,0.241-0.576,0.378-0.872c0.024-0.053,0.047-0.11,0.073-0.166
					c0.723-1.578,1.807-3.153,2.471-4.118c0.016-0.022,0.032-0.044,0.046-0.065c-0.312,0.265-2.886,2.484-4.589,4.828
					c-3.135,4.313-2.271,10.274,1.299,13.971C22.574,67.964,25.627,68.52,27.957,68.456z"/>
			</g>
		</g>
		<linearGradient id="SVGID_5_" gradientUnits="userSpaceOnUse" x1="16.9031" y1="23.6732" x2="26.3863" y2="59.065">
			<stop  offset="0.0051" style="stop-color:#D6D6D6"/>
			<stop  offset="0.5969" style="stop-color:#ADADAD"/>
		</linearGradient>
		<path fill="url(#SVGID_5_)" d="M39.007,37.661c-2.124-5.894-7.065-10.871-13.473-12.588C14.824,22.204,5.706,26.03,0.878,32.63
			c0,0,3.588,5.736,12.804,5.248c5.982-0.319,12.204,0.272,16.565,6.477c0.469,0.665,0.902,1.311,1.311,1.937
			c0.048,0.061,0.096,0.13,0.146,0.201c0.49,0.74,1.191,1.796,2.28,3.831c0.367,0.684,0.386,1.572-0.04,2.449
			c-0.46,0.95-1.49,2.951-1.966,3.7c-0.339,0.536-1.14,1.383-2.154,1.471c-0.005,0.001-0.009,0.001-0.014,0.002
			c3.589-0.195,6.53-2.456,8.45-5.884C40.528,48.013,40.739,42.466,39.007,37.661z"/>
		<linearGradient id="SVGID_6_" gradientUnits="userSpaceOnUse" x1="16.4801" y1="32.2051" x2="22.0702" y2="63.9086">
			<stop  offset="0.1582" style="stop-color:#9D9D9D"/>
			<stop  offset="0.5399" style="stop-color:#3A3A3A"/>
			<stop  offset="1" style="stop-color:#000000"/>
		</linearGradient>
		<path fill="url(#SVGID_6_)" d="M34.884,40.056c-2.04-3.74-6.786-8.117-14.999-8.117c-11.552,0-17.732,8.676-17.732,17.114
			c0,6.686,3.627,13.326,10.602,16.497c-2.523-10.233,1.996-19.435,12.467-20.086c0.045-0.006,0.089-0.01,0.134-0.014
			c1.087-0.092,3.683-0.033,4.379,0.019c1.008,0.081,1.448,0.245,1.968,1.024c0.49,0.74,1.191,1.798,2.28,3.832
			c0.367,0.684,0.386,1.572-0.04,2.449c-0.401,0.829-1.235,2.454-1.758,3.355c0.112-0.129,2.547-2.983,3.294-4.851
			C37.249,46.857,35.956,42.018,34.884,40.056z"/>
		<linearGradient id="SVGID_7_" gradientUnits="userSpaceOnUse" x1="34.9821" y1="54.6349" x2="34.9821" y2="36.8349">
			<stop  offset="0" style="stop-color:#1C1C1C"/>
			<stop  offset="1" style="stop-color:#808080"/>
		</linearGradient>
		<path fill="url(#SVGID_7_)" d="M29.809,57.95c3.589-0.197,6.53-2.46,8.45-5.888c2.268-4.05,2.479-9.597,0.747-14.402
			c-0.794-2.2-1.98-4.273-3.489-6.096c-0.589,1.694-0.738,3.83-0.42,6.58c0.748,5.164,0.31,9.547-0.457,12.504
			c-0.164,0.635-0.326,1.143-0.493,1.587c-0.05,0.179-0.118,0.358-0.206,0.538c-0.46,0.951-1.49,2.95-1.966,3.699
			c-0.339,0.536-1.141,1.386-2.154,1.472L29.809,57.95z"/>
		<linearGradient id="SVGID_8_" gradientUnits="userSpaceOnUse" x1="9.3701" y1="32.899" x2="36.9708" y2="48.8343">
			<stop  offset="0" style="stop-color:#888888"/>
			<stop  offset="0.1462" style="stop-color:#7F7F7F"/>
			<stop  offset="0.3846" style="stop-color:#676767"/>
			<stop  offset="0.6837" style="stop-color:#404040"/>
			<stop  offset="0.8712" style="stop-color:#232323"/>
		</linearGradient>
		<path fill="url(#SVGID_8_)" d="M35.479,51.276c1.769-4.42,0.477-9.258-0.595-11.22c-2.04-3.74-6.786-8.117-14.999-8.117
			c-5.58,0-9.906,2.025-12.887,5.068c1.782,0.622,3.991,1.011,6.684,0.87c5.982-0.319,12.204,0.272,16.565,6.477
			c0.469,0.665,0.902,1.311,1.311,1.937h0.001c0.023,0.03,0.046,0.06,0.069,0.092c0.025,0.036,0.051,0.074,0.076,0.109
			c0.49,0.74,1.191,1.798,2.28,3.832c0.367,0.684,0.386,1.572-0.04,2.449c-0.401,0.829-1.235,2.454-1.758,3.355
			C32.298,55.999,34.732,53.145,35.479,51.276z"/>
		<linearGradient id="SVGID_9_" gradientUnits="userSpaceOnUse" x1="32.9372" y1="67.9389" x2="26.9043" y2="57.6724">
			<stop  offset="0" style="stop-color:#949494"/>
			<stop  offset="1" style="stop-color:#464646"/>
		</linearGradient>
		<path fill="url(#SVGID_9_)" d="M42.229,59.905c-1.474-0.982-2.328-3.109-2.253-5.173c0.082-2.236-1.247-1.884-1.247-1.884
			s-2.756,5.048-9.075,5.102c-0.002,0-0.002,0-0.005,0c-1.152-0.009-3.154-0.083-3.995-0.091c-4.039,0.041-7.976,0.817-11.168,4.863
			c0,0,3.375-0.184,9.998,1.856C36.784,68.367,42.865,61.252,42.229,59.905z"/>
		<linearGradient id="SVGID_10_" gradientUnits="userSpaceOnUse" x1="35.5012" y1="61.8269" x2="31.7367" y2="55.4207">
			<stop  offset="0" style="stop-color:#5A5A5A"/>
			<stop  offset="0.8" style="stop-color:#303030"/>
		</linearGradient>
		<path fill="url(#SVGID_10_)" d="M38.729,52.847c0,0-2.731,4.998-8.984,5.1c-0.034,0.004-0.069,0.006-0.105,0.004
			c-0.316,0-0.746-0.011-1.206-0.024c-1.037-0.024-2.192-0.061-2.779-0.067c-0.22,0.002-0.439,0.007-0.658,0.014
			c-0.351,0.014-0.7,0.032-0.885,0.041c-0.045,0.004-0.088,0.009-0.133,0.012c1.555,1.672,4.276,3.197,7.946,3.234
			c2.736,0.028,5.827-0.75,8.783-2.87c0.022-0.016,0.04-0.032,0.063-0.047c-0.555-1.02-0.839-2.28-0.795-3.511
			C40.058,52.497,38.729,52.847,38.729,52.847z"/>
		<linearGradient id="SVGID_11_" gradientUnits="userSpaceOnUse" x1="9.6032" y1="61.2993" x2="25.8609" y2="45.0415">
			<stop  offset="0" style="stop-color:#000000"/>
			<stop  offset="0.0689" style="stop-color:#0A0A0A"/>
			<stop  offset="0.2502" style="stop-color:#202020"/>
			<stop  offset="0.4493" style="stop-color:#30302F"/>
			<stop  offset="0.6775" style="stop-color:#393938"/>
			<stop  offset="1" style="stop-color:#3C3C3B"/>
		</linearGradient>
		<path fill="url(#SVGID_11_)" d="M20.879,44.58c-7.542,2.363-11.449,11.653-8.123,20.966c-2.522-10.232,1.997-19.43,12.467-20.081
			c0.045-0.006,0.089-0.01,0.134-0.014c1.087-0.092,3.683-0.033,4.379,0.019c1.008,0.081,1.448,0.245,1.968,1.024
			c0.012,0.02,0.024,0.038,0.037,0.058C30.251,43.782,25.468,43.143,20.879,44.58z"/>
		<linearGradient id="SVGID_12_" gradientUnits="userSpaceOnUse" x1="13.6481" y1="61.7723" x2="31.8323" y2="61.7723">
			<stop  offset="0" style="stop-color:#2E2E2E"/>
			<stop  offset="1" style="stop-color:#606060"/>
		</linearGradient>
		<path fill="url(#SVGID_12_)" d="M36.163,64.978c-1.403-4.123-5.393-6.399-10.151-7.02c-0.313-0.041-0.603-0.065-0.866-0.091
			c-3.86,0.107-7.601,0.978-10.66,4.855c0,0,3.375-0.184,9.998,1.856C29.369,66.082,33.271,65.868,36.163,64.978z"/>
		<path fill="#3C3C3B" d="M35.416,41.242c0.234,3.817-0.165,7.061-0.774,9.407c-0.164,0.635-0.326,1.143-0.493,1.585
			c0,0-0.001,0.005-0.002,0.009c-0.023,0.08-0.049,0.161-0.08,0.24c-0.007,0.019-0.013,0.034-0.02,0.051
			c-0.027,0.07-0.058,0.141-0.091,0.211c-0.005,0.011-0.009,0.021-0.014,0.029c-0.401,0.829-1.233,2.45-1.755,3.353
			c0.132-0.155,2.547-2.99,3.291-4.849C36.957,47.581,36.297,43.597,35.416,41.242z"/>
		<path fill="#1F1F1F" d="M25.944,64.979c-0.349-0.363-0.805-0.718-1.246-1.068c-2.115-1.684-3.664-3.361-4.52-5.269
			c-2.046,0.679-4.045,1.905-5.759,4.08c0,0,3.374-0.184,9.997,1.856C24.915,64.732,25.466,64.859,25.944,64.979z"/>
		<g>
			<path fill="#0F0F0F" d="M29.725,57.95c-0.024,0-0.046,0-0.071,0c-0.002,0-0.002,0-0.005,0c-0.346-0.004-0.772-0.012-1.218-0.023
				c0.462,0.012,0.892,0.023,1.208,0.024C29.669,57.952,29.697,57.95,29.725,57.95z"/>
			<path fill="#0F0F0F" d="M23.979,57.927c0.044-0.004,0.087-0.008,0.133-0.01c-0.083,0.004-0.134,0.008-0.134,0.008L23.979,57.927z
				"/>
			<path fill="#0F0F0F" d="M23.979,57.927c0.044-0.004,0.087-0.008,0.133-0.01c-0.083,0.004-0.134,0.008-0.134,0.008L23.979,57.927z
				"/>
			<path fill="#0F0F0F" d="M25.156,57.869c-0.006-0.002-0.012-0.002-0.017-0.002c-0.048,0.002-0.095,0.003-0.142,0.006
				C25.049,57.871,25.104,57.871,25.156,57.869z"/>
			<path fill="#0F0F0F" d="M25.156,57.869c-0.006-0.002-0.012-0.002-0.017-0.002c-0.048,0.002-0.095,0.003-0.142,0.006
				C25.049,57.871,25.104,57.871,25.156,57.869z"/>
			<path fill="#262626" d="M25.156,57.869c-0.053,0.002-0.107,0.002-0.159,0.004c-0.296,0.009-0.591,0.024-0.885,0.044
				c-0.045,0.002-0.088,0.006-0.133,0.01c1.556,1.672,4.276,3.197,7.946,3.234c0.531,0.007,1.078-0.018,1.633-0.081
				c-1.927-1.709-4.588-2.735-7.545-3.122C25.704,57.917,25.417,57.893,25.156,57.869z"/>
		</g>
	</g>
</g>
</svg>
