<?xml version="1.0" encoding="utf-8"?>
<!-- Generator: Adobe Illustrator 17.0.0, SVG Export Plug-In . SVG Version: 6.00 Build 0)  -->
<!DOCTYPE svg PUBLIC "-//W3C//DTD SVG 1.1//EN" "http://www.w3.org/Graphics/SVG/1.1/DTD/svg11.dtd">
<svg version="1.1" id="Artwork" xmlns="http://www.w3.org/2000/svg" xmlns:xlink="http://www.w3.org/1999/xlink" x="0px" y="0px"
	 width="168.695px" height="76.13px" viewBox="0 0 168.695 76.13" enable-background="new 0 0 168.695 76.13" xml:space="preserve">
<g>
	<path fill="#FFFFFF" d="M5.784,7.613v0.96H0v-8.52h5.676v0.96H1.08v2.76h3.996v0.899H1.08v2.94H5.784z"/>
	<path fill="#FFFFFF" d="M8.34,2.069v6.504H7.26v-8.52H8.1l5.28,6.636V0.065h1.08v8.508h-0.912L8.34,2.069z"/>
	<path fill="#FFFFFF" d="M16.5,8.573v-8.52h2.952c0.68,0,1.278,0.111,1.794,0.336c0.516,0.224,0.946,0.527,1.29,0.911
		c0.344,0.385,0.602,0.834,0.774,1.351c0.172,0.516,0.258,1.066,0.258,1.649c0,0.648-0.096,1.234-0.288,1.759
		c-0.192,0.523-0.468,0.972-0.828,1.344c-0.36,0.372-0.794,0.66-1.302,0.864s-1.074,0.306-1.698,0.306H16.5z M22.476,4.301
		c0-0.479-0.066-0.922-0.198-1.325c-0.132-0.404-0.328-0.75-0.588-1.038c-0.26-0.288-0.578-0.515-0.954-0.679
		c-0.376-0.163-0.804-0.245-1.284-0.245H17.58v6.6h1.872c0.488,0,0.922-0.084,1.302-0.252s0.696-0.4,0.948-0.696
		s0.444-0.646,0.576-1.05C22.41,5.211,22.476,4.773,22.476,4.301z"/>
	<path fill="#FFFFFF" d="M28.548,8.633c-0.6,0-1.146-0.121-1.638-0.365c-0.492-0.244-0.914-0.568-1.266-0.973
		c-0.352-0.403-0.624-0.865-0.816-1.386c-0.192-0.52-0.288-1.052-0.288-1.596c0-0.568,0.102-1.112,0.306-1.632
		c0.204-0.521,0.486-0.98,0.846-1.381c0.36-0.399,0.786-0.718,1.278-0.953c0.492-0.236,1.026-0.354,1.602-0.354
		c0.6,0,1.144,0.126,1.632,0.378c0.488,0.252,0.908,0.582,1.26,0.99s0.624,0.87,0.816,1.386c0.192,0.517,0.288,1.042,0.288,1.578
		c0,0.568-0.102,1.112-0.306,1.632c-0.204,0.521-0.484,0.979-0.84,1.374c-0.356,0.396-0.78,0.712-1.272,0.948
		C29.658,8.516,29.124,8.633,28.548,8.633z M25.632,4.313c0,0.432,0.07,0.85,0.21,1.254c0.14,0.404,0.338,0.762,0.594,1.074
		C26.692,6.953,27,7.201,27.36,7.385c0.36,0.185,0.76,0.276,1.2,0.276c0.456,0,0.864-0.098,1.224-0.294S30.45,6.915,30.702,6.6
		c0.252-0.316,0.444-0.674,0.576-1.074s0.198-0.804,0.198-1.212c0-0.433-0.07-0.851-0.21-1.254c-0.14-0.404-0.34-0.761-0.6-1.068
		c-0.26-0.308-0.568-0.554-0.924-0.738c-0.356-0.184-0.75-0.275-1.182-0.275c-0.456,0-0.864,0.096-1.224,0.288
		c-0.36,0.191-0.666,0.443-0.918,0.756c-0.252,0.312-0.446,0.668-0.582,1.067C25.7,3.489,25.632,3.897,25.632,4.313z"/>
	<path fill="#FFFFFF" d="M34.067,8.573v-8.52h3.648c0.376,0,0.722,0.077,1.038,0.233c0.316,0.156,0.588,0.364,0.816,0.624
		s0.406,0.552,0.534,0.876c0.128,0.324,0.192,0.654,0.192,0.99c0,0.296-0.042,0.582-0.126,0.857c-0.084,0.276-0.204,0.526-0.36,0.75
		c-0.156,0.225-0.344,0.417-0.564,0.576c-0.22,0.16-0.466,0.276-0.738,0.349l2.064,3.264h-1.224l-1.944-3.06h-2.256v3.06H34.067z
		 M35.147,4.554h2.58c0.224,0,0.426-0.049,0.606-0.145c0.18-0.096,0.334-0.226,0.462-0.39s0.228-0.354,0.3-0.57
		c0.072-0.216,0.108-0.439,0.108-0.672c0-0.24-0.042-0.466-0.126-0.678s-0.196-0.4-0.336-0.564s-0.304-0.292-0.492-0.384
		c-0.188-0.092-0.386-0.138-0.594-0.138h-2.508V4.554z"/>
	<path fill="#FFFFFF" d="M46.956,1.841c-0.096-0.111-0.224-0.22-0.384-0.323c-0.16-0.104-0.34-0.198-0.54-0.282
		c-0.2-0.084-0.418-0.152-0.654-0.204s-0.482-0.078-0.738-0.078c-0.664,0-1.15,0.124-1.458,0.372S42.72,1.913,42.72,2.346
		c0,0.231,0.044,0.424,0.132,0.575c0.088,0.152,0.226,0.282,0.414,0.391c0.188,0.107,0.422,0.202,0.702,0.281
		c0.28,0.08,0.612,0.164,0.996,0.253c0.439,0.096,0.838,0.206,1.194,0.329c0.356,0.125,0.66,0.278,0.912,0.463
		c0.252,0.184,0.444,0.407,0.576,0.672c0.132,0.264,0.198,0.588,0.198,0.972c0,0.408-0.08,0.762-0.24,1.062
		c-0.16,0.301-0.378,0.549-0.654,0.744c-0.276,0.196-0.602,0.341-0.978,0.433s-0.784,0.138-1.224,0.138
		c-0.656,0-1.278-0.102-1.866-0.306C42.293,8.147,41.76,7.85,41.28,7.457l0.516-0.912c0.128,0.137,0.294,0.272,0.498,0.408
		c0.204,0.137,0.436,0.258,0.696,0.366c0.26,0.107,0.54,0.196,0.84,0.264c0.3,0.068,0.614,0.103,0.942,0.103
		c0.608,0,1.08-0.108,1.416-0.324s0.504-0.54,0.504-0.972c0-0.24-0.054-0.442-0.162-0.606s-0.266-0.306-0.474-0.426
		s-0.466-0.227-0.774-0.318c-0.308-0.092-0.658-0.186-1.05-0.282c-0.432-0.104-0.812-0.216-1.14-0.336
		c-0.328-0.12-0.602-0.264-0.822-0.432s-0.386-0.372-0.498-0.612c-0.112-0.239-0.168-0.527-0.168-0.863
		c0-0.408,0.076-0.769,0.228-1.08c0.152-0.312,0.364-0.576,0.636-0.792c0.272-0.217,0.596-0.378,0.972-0.486
		s0.784-0.162,1.224-0.162c0.576,0,1.096,0.088,1.56,0.264c0.464,0.177,0.876,0.412,1.236,0.708L46.956,1.841z"/>
	<path fill="#FFFFFF" d="M55.043,7.613v0.96h-5.784v-8.52h5.676v0.96h-4.596v2.76h3.996v0.899h-3.996v2.94H55.043z"/>
	<path fill="#FFFFFF" d="M56.52,8.573v-8.52h2.952c0.68,0,1.278,0.111,1.794,0.336c0.516,0.224,0.946,0.527,1.29,0.911
		c0.344,0.385,0.602,0.834,0.774,1.351c0.172,0.516,0.258,1.066,0.258,1.649c0,0.648-0.096,1.234-0.288,1.759
		c-0.192,0.523-0.468,0.972-0.828,1.344c-0.36,0.372-0.794,0.66-1.302,0.864s-1.074,0.306-1.698,0.306H56.52z M62.496,4.301
		c0-0.479-0.066-0.922-0.198-1.325c-0.132-0.404-0.328-0.75-0.588-1.038c-0.26-0.288-0.578-0.515-0.954-0.679
		c-0.376-0.163-0.804-0.245-1.284-0.245H57.6v6.6h1.872c0.488,0,0.922-0.084,1.302-0.252s0.696-0.4,0.948-0.696
		s0.444-0.646,0.576-1.05C62.43,5.211,62.496,4.773,62.496,4.301z"/>
	<path fill="#FFFFFF" d="M74.687,6.377c0,0.328-0.066,0.628-0.198,0.9c-0.132,0.271-0.312,0.504-0.54,0.696
		c-0.228,0.191-0.492,0.34-0.792,0.443c-0.3,0.104-0.622,0.156-0.966,0.156h-4.044v-8.52h4.236c0.296,0,0.564,0.063,0.804,0.191
		c0.24,0.128,0.444,0.294,0.612,0.498s0.298,0.437,0.39,0.696c0.092,0.26,0.138,0.521,0.138,0.786c0,0.424-0.106,0.815-0.318,1.176
		s-0.514,0.628-0.906,0.804c0.488,0.145,0.874,0.41,1.158,0.798C74.545,5.392,74.687,5.85,74.687,6.377z M69.227,0.989v2.844h2.712
		c0.192,0,0.368-0.038,0.528-0.113c0.16-0.076,0.298-0.179,0.414-0.307s0.208-0.277,0.276-0.45c0.068-0.172,0.102-0.354,0.102-0.546
		c0-0.199-0.032-0.388-0.096-0.563c-0.064-0.176-0.15-0.328-0.258-0.456c-0.108-0.128-0.24-0.229-0.396-0.3
		c-0.156-0.072-0.322-0.108-0.498-0.108H69.227z M73.595,6.185c0-0.192-0.034-0.378-0.102-0.559c-0.068-0.18-0.16-0.338-0.276-0.474
		c-0.116-0.136-0.254-0.244-0.414-0.324c-0.16-0.08-0.336-0.12-0.528-0.12h-3.048v2.929h2.964c0.2,0,0.384-0.04,0.552-0.12
		s0.316-0.187,0.444-0.318s0.228-0.286,0.3-0.462C73.559,6.561,73.595,6.377,73.595,6.185z"/>
	<path fill="#FFFFFF" d="M76.151,0.054l2.58,4.439l2.604-4.439h1.176l-3.24,5.411v3.108h-1.08V5.441l-3.228-5.388H76.151z"/>
</g>
<path fill="#FFFFFF" d="M66.017,43.371c-2.703-1.191-5.986-1.264-7.826-1.191c-3.805,0.15-5,0.479-5,0.479v18.26
	c0,0.222,0.138,0.415,0.341,0.483c0.009,0.003,1.718,0.51,4.694,0.589c3.828,0.104,6.621-0.406,8.706-1.802
	c2.798-1.87,4.174-4.533,4.174-8.426C71.105,47.682,69.395,44.86,66.017,43.371z M61.004,57.74c-1.621,0.07-2.62-0.042-3.085-0.178
	l0.003-11.03c0.512-0.08,1.672-0.186,3.218-0.127c1.93,0.074,5.173,0.758,5.173,5.161C66.313,56.157,63.003,57.654,61.004,57.74z
	 M81.169,49.831c-0.087-0.026-0.163-0.05-0.23-0.074c-1.352-0.453-2.461-1.142-2.514-2.073c-0.027-0.503,0.155-0.953,0.418-1.231
	c0.379-0.402,1.069-0.559,1.502-0.559c2.127,0,4.103,1.01,4.103,1.01l1.17-3.134c0.043-0.125,0.037-0.265-0.019-0.382
	c-0.056-0.124-0.161-0.219-0.288-0.265l-0.025-0.008c-1.024-0.383-2.872-0.949-4.999-0.98c-4.128-0.057-6.607,2.038-6.607,5.453
	c0,4.03,3.397,5.341,4.516,5.794c0.19,0.08,0.401,0.158,0.622,0.243c0.741,0.28,1.56,0.631,2.185,1.019
	c0.683,0.424,0.828,1.208,0.721,1.723c-0.31,1.49-1.944,1.811-3.249,1.615c-2.488-0.374-3.794-1.062-3.794-1.062l-1.068,3.157
	c-0.078,0.231,0.024,0.485,0.236,0.604c0.021,0.01,2.302,1.165,5.225,1.165c3.342,0,7.245-1.592,7.245-6.09
	C86.318,51.618,82.732,50.33,81.169,49.831z M111.456,43.066v18.037c0,0.135-0.053,0.263-0.15,0.358
	c-0.094,0.092-0.222,0.142-0.353,0.142l-4.223,0.007c0,0,0.026-7.434,0-8.914c-0.018-0.977,0.285-3.957,0.395-4.461
	c0-0.005,0-0.021,0.002-0.035c-0.017-0.078-0.083-0.055-0.102-0.043c-0.011,0.009-0.024,0.027-0.024,0.027l-4.792,7.729
	c-0.027,0.054-0.058,0.098-0.096,0.139c-0.096,0.094-0.222,0.146-0.357,0.146l-1.177-0.006h-0.002L99.398,56.2
	c-0.134,0-0.262-0.053-0.356-0.146c-0.039-0.041-0.069-0.085-0.097-0.139l-4.791-7.729c0,0-0.017-0.019-0.023-0.027
	c-0.021-0.012-0.086-0.035-0.103,0.043c0,0.014,0,0.03,0.001,0.035c0.108,0.504,0.414,3.484,0.396,4.461
	c-0.025,1.48,0,8.914,0,8.914l-4.224-0.007c-0.13,0-0.258-0.051-0.353-0.142c-0.096-0.096-0.151-0.224-0.151-0.358V43.066
	c0-0.276,0.227-0.5,0.503-0.5h5.102c0.213,0,0.379,0.111,0.488,0.286c0,0,3.607,6.207,4.037,6.949
	c0.277,0.472,0.686,1.569,0.685,1.634v0.003l0,0c0,0.002,0,0.006,0,0.006h0.001c0.002,0.033,0.029,0.058,0.062,0.059l0,0h0.002
	c0.002,0,0.002,0,0.002,0l0,0c0.033-0.002,0.059-0.026,0.062-0.059h0.003c0,0,0-0.004,0-0.006l0,0v-0.003
	c-0.003-0.064,0.408-1.162,0.683-1.634c0.429-0.742,4.037-6.949,4.037-6.949c0.11-0.175,0.275-0.286,0.488-0.286h5.102
	C111.231,42.566,111.456,42.79,111.456,43.066z"/>
<g>
	<path fill="#FFFFFF" d="M54.725,71.587h-1.521v-5.237h1.385c0.78,0,1.052,0.052,1.377,0.257c0.394,0.249,0.591,0.591,0.591,1.028
		c0,0.562-0.318,0.977-0.901,1.145c0.871,0.211,1.114,0.803,1.114,1.325C56.77,71.141,56.05,71.587,54.725,71.587z M55.218,67.121
		c-0.107-0.038-0.243-0.059-0.493-0.059h-0.674v1.427h0.743c0.317,0,0.477-0.021,0.643-0.195c0.159-0.164,0.205-0.386,0.205-0.521
		C55.642,67.468,55.467,67.213,55.218,67.121z M55.316,69.255c-0.129-0.037-0.236-0.045-0.483-0.045h-0.766v1.657h0.787
		c0.666,0,0.954-0.379,0.954-0.849C55.808,69.65,55.604,69.337,55.316,69.255z"/>
	<path fill="#FFFFFF" d="M60.374,71.587l-0.454-0.81c-0.364-0.643-0.605-1.008-0.893-1.295c-0.099-0.099-0.175-0.15-0.34-0.158
		v2.263h-0.856v-5.237h1.598c1.174,0,1.703,0.681,1.703,1.499c0,0.749-0.484,1.438-1.301,1.438c0.189,0.098,0.537,0.606,0.81,1.044
		l0.772,1.257H60.374z M59.163,67.053h-0.477v1.657h0.447c0.454,0,0.696-0.062,0.854-0.222c0.144-0.143,0.235-0.359,0.235-0.636
		C60.222,67.325,59.934,67.053,59.163,67.053z"/>
	<path fill="#FFFFFF" d="M62.244,71.587v-5.237h0.893v5.237H62.244z"/>
	<path fill="#FFFFFF" d="M66.491,71.655c-0.734,0-1.302-0.234-1.71-0.741c-0.401-0.491-0.583-1.081-0.583-1.907
		c0-1.076,0.326-1.826,0.985-2.317c0.377-0.288,0.786-0.407,1.294-0.407c0.599,0,1.127,0.181,1.56,0.551l-0.44,0.546
		c-0.362-0.279-0.704-0.402-1.105-0.402c-0.969,0-1.325,0.849-1.325,2.074c0,0.733,0.137,1.25,0.386,1.546
		c0.212,0.249,0.591,0.393,0.992,0.393c0.272,0,0.5-0.061,0.697-0.166v-1.362h-0.892l-0.121-0.713h1.9v2.468
		C67.649,71.503,67.075,71.655,66.491,71.655z"/>
	<path fill="#FFFFFF" d="M71.988,71.587v-2.42h-1.787v2.42h-0.863v-5.237h0.863v2.104h1.787v-2.104h0.878v5.237H71.988z"/>
	<path fill="#FFFFFF" d="M77.173,67.076h-1.317v4.511h-0.871v-4.511H73.66v-0.727h3.628L77.173,67.076z"/>
	<path fill="#FFFFFF" d="M80.823,71.685c-0.599,0-1.203-0.159-1.718-0.47l0.333-0.666c0.469,0.273,0.886,0.432,1.415,0.432
		c0.644,0,1.03-0.311,1.03-0.832c0-0.386-0.243-0.626-0.78-0.78l-0.561-0.158c-0.476-0.138-0.817-0.335-1.015-0.628
		c-0.143-0.212-0.22-0.464-0.22-0.767c0-0.922,0.728-1.551,1.779-1.551c0.599,0,1.197,0.173,1.659,0.499l-0.394,0.614
		c-0.485-0.287-0.818-0.402-1.234-0.402c-0.516,0-0.855,0.279-0.855,0.712c0,0.326,0.181,0.491,0.696,0.644l0.621,0.183
		c0.757,0.22,1.286,0.704,1.286,1.492C82.867,70.876,82.163,71.685,80.823,71.685z"/>
	<path fill="#FFFFFF" d="M85.919,71.671c-0.696,0-1.249-0.265-1.658-0.758c-0.393-0.476-0.598-1.114-0.598-1.869
		c0-0.628,0.112-1.15,0.349-1.591c0.393-0.748,1.112-1.202,1.929-1.202c0.507,0,0.992,0.149,1.303,0.407l-0.401,0.575
		c-0.28-0.204-0.568-0.296-0.894-0.296c-0.447,0-0.818,0.229-1.045,0.628c-0.182,0.32-0.273,0.76-0.273,1.38
		c0,0.642,0.068,1.007,0.205,1.302c0.227,0.5,0.659,0.741,1.167,0.741c0.37,0,0.642-0.097,0.938-0.333l0.409,0.553
		C86.94,71.518,86.479,71.671,85.919,71.671z"/>
	<path fill="#FFFFFF" d="M88.182,71.587v-5.237h0.894v5.237H88.182z"/>
	<path fill="#FFFFFF" d="M90.363,71.587v-5.237h2.907l-0.113,0.713h-1.923v1.427h1.613v0.722H91.25v1.635h2.096v0.741H90.363z"/>
	<path fill="#FFFFFF" d="M96.851,71.587l-1.173-2.461c-0.279-0.581-0.568-1.239-0.666-1.552l-0.022,0.024
		c0.038,0.438,0.046,0.938,0.054,1.452l0.03,2.536h-0.855v-5.237h0.983l1.271,2.56c0.243,0.483,0.47,1.103,0.538,1.346l0.022-0.022
		c-0.022-0.265-0.076-1.014-0.076-1.492l-0.016-2.391h0.825v5.237H96.851z"/>
	<path fill="#FFFFFF" d="M101.084,71.671c-0.697,0-1.249-0.265-1.658-0.758c-0.394-0.476-0.598-1.114-0.598-1.869
		c0-0.628,0.114-1.15,0.348-1.591c0.394-0.748,1.113-1.202,1.931-1.202c0.506,0,0.991,0.149,1.301,0.407l-0.399,0.575
		c-0.281-0.204-0.569-0.296-0.894-0.296c-0.446,0-0.817,0.229-1.044,0.628c-0.182,0.32-0.273,0.76-0.273,1.38
		c0,0.642,0.068,1.007,0.205,1.302c0.226,0.5,0.658,0.741,1.165,0.741c0.372,0,0.644-0.097,0.938-0.333l0.41,0.553
		C102.105,71.518,101.644,71.671,101.084,71.671z"/>
	<path fill="#FFFFFF" d="M103.347,71.587v-5.237h2.909l-0.114,0.713h-1.924v1.427h1.612v0.722h-1.597v1.635h2.097v0.741H103.347z"/>
	<path fill="#FFFFFF" d="M107.648,71.702c-0.333,0-0.598-0.281-0.598-0.622c0-0.332,0.258-0.599,0.582-0.599
		c0.334,0,0.605,0.267,0.605,0.599C108.238,71.42,107.967,71.702,107.648,71.702z"/>
	<path fill="#FFFFFF" d="M112.601,71.587h-1.523v-5.237h1.387c0.78,0,1.052,0.052,1.376,0.257c0.395,0.249,0.591,0.591,0.591,1.028
		c0,0.562-0.318,0.977-0.901,1.145c0.871,0.211,1.113,0.803,1.113,1.325C114.644,71.141,113.925,71.587,112.601,71.587z
		 M113.092,67.121c-0.106-0.038-0.244-0.059-0.492-0.059h-0.674v1.427h0.741c0.318,0,0.477-0.021,0.644-0.195
		c0.157-0.164,0.205-0.386,0.205-0.521C113.517,67.468,113.342,67.213,113.092,67.121z M113.189,69.255
		c-0.128-0.037-0.233-0.045-0.484-0.045h-0.765v1.657h0.788c0.665,0,0.955-0.379,0.955-0.849
		C113.683,69.65,113.478,69.337,113.189,69.255z"/>
	<path fill="#FFFFFF" d="M118.248,71.587l-0.454-0.81c-0.363-0.643-0.605-1.008-0.893-1.295c-0.099-0.099-0.174-0.15-0.341-0.158
		v2.263h-0.854v-5.237h1.597c1.173,0,1.702,0.681,1.702,1.499c0,0.749-0.483,1.438-1.301,1.438c0.19,0.098,0.537,0.606,0.81,1.044
		l0.772,1.257H118.248z M117.036,67.053h-0.477v1.657h0.447c0.454,0,0.697-0.062,0.855-0.222c0.144-0.143,0.234-0.359,0.234-0.636
		C118.096,67.325,117.809,67.053,117.036,67.053z"/>
	<path fill="#FFFFFF" d="M120.118,71.587v-5.237h0.894v5.237H120.118z"/>
	<path fill="#FFFFFF" d="M124.366,71.655c-0.735,0-1.303-0.234-1.712-0.741c-0.401-0.491-0.583-1.081-0.583-1.907
		c0-1.076,0.326-1.826,0.984-2.317c0.378-0.288,0.788-0.407,1.294-0.407c0.598,0,1.127,0.181,1.56,0.551l-0.439,0.546
		c-0.364-0.279-0.704-0.402-1.105-0.402c-0.969,0-1.325,0.849-1.325,2.074c0,0.733,0.137,1.25,0.385,1.546
		c0.212,0.249,0.591,0.393,0.993,0.393c0.271,0,0.499-0.061,0.694-0.166v-1.362h-0.893l-0.12-0.713h1.899v2.468
		C125.524,71.503,124.948,71.655,124.366,71.655z"/>
	<path fill="#FFFFFF" d="M129.862,71.587v-2.42h-1.786v2.42h-0.864v-5.237h0.864v2.104h1.786v-2.104h0.877v5.237H129.862z"/>
	<path fill="#FFFFFF" d="M135.048,67.076h-1.315v4.511h-0.873v-4.511h-1.323v-0.727h3.625L135.048,67.076z"/>
	<path fill="#FFFFFF" d="M135.692,71.587v-5.237h2.907l-0.115,0.713h-1.922v1.427h1.614v0.722h-1.598v1.635h2.097v0.741H135.692z"/>
	<path fill="#FFFFFF" d="M142.089,71.587l-0.454-0.81c-0.363-0.643-0.606-1.008-0.894-1.295c-0.098-0.099-0.174-0.15-0.341-0.158
		v2.263h-0.855v-5.237h1.598c1.173,0,1.702,0.681,1.702,1.499c0,0.749-0.483,1.438-1.3,1.438c0.188,0.098,0.537,0.606,0.81,1.044
		l0.772,1.257H142.089z M140.879,67.053h-0.478v1.657h0.448c0.454,0,0.697-0.062,0.854-0.222c0.145-0.143,0.235-0.359,0.235-0.636
		C141.939,67.325,141.65,67.053,140.879,67.053z"/>
	<path fill="#FFFFFF" d="M148.343,71.587h-2.679v-5.237h0.885v4.519h1.938L148.343,71.587z"/>
	<path fill="#FFFFFF" d="M149.244,71.587v-5.237h0.895v5.237H149.244z"/>
	<path fill="#FFFFFF" d="M153.318,71.61h-0.81l-1.764-5.261h0.954l0.945,2.965c0.137,0.417,0.229,0.798,0.272,1.053h0.016
		c0.06-0.249,0.136-0.551,0.318-1.096l0.96-2.922h0.91L153.318,71.61z"/>
	<path fill="#FFFFFF" d="M155.726,71.587v-5.237h0.895v5.237H155.726z"/>
	<path fill="#FFFFFF" d="M160.54,71.587l-1.172-2.461c-0.282-0.581-0.569-1.239-0.668-1.552l-0.023,0.024
		c0.04,0.438,0.046,0.938,0.055,1.452l0.03,2.536h-0.855v-5.237h0.983l1.272,2.56c0.242,0.483,0.47,1.103,0.538,1.346l0.022-0.022
		c-0.022-0.265-0.076-1.014-0.076-1.492l-0.014-2.391h0.825v5.237H160.54z"/>
	<path fill="#FFFFFF" d="M164.811,71.655c-0.735,0-1.304-0.234-1.712-0.741c-0.4-0.491-0.582-1.081-0.582-1.907
		c0-1.076,0.326-1.826,0.985-2.317c0.377-0.288,0.787-0.407,1.294-0.407c0.599,0,1.128,0.181,1.558,0.551l-0.438,0.546
		c-0.364-0.279-0.704-0.402-1.105-0.402c-0.969,0-1.325,0.849-1.325,2.074c0,0.733,0.135,1.25,0.385,1.546
		c0.212,0.249,0.591,0.393,0.992,0.393c0.272,0,0.5-0.061,0.696-0.166v-1.362h-0.893l-0.12-0.713h1.901v2.468
		C165.968,71.503,165.395,71.655,164.811,71.655z"/>
	<path fill="#FFFFFF" d="M168.104,71.702c-0.332,0-0.597-0.281-0.597-0.622c0-0.332,0.257-0.599,0.583-0.599
		c0.334,0,0.606,0.267,0.606,0.599C168.695,71.42,168.423,71.702,168.104,71.702z"/>
</g>
<g>
	<path fill="#FFFFFF" d="M43.306,25.203c-6.24,1.867-9.218,4.775-8.287,12.822c0.766,5.283,0.319,9.768-0.467,12.796
		c-0.167,0.647-0.333,1.168-0.504,1.621c-0.051,0.183-0.12,0.368-0.21,0.553c-0.471,0.972-1.524,3.02-2.012,3.785
		c-0.366,0.581-1.266,1.524-2.393,1.514c-1.093-0.008-3.481-0.096-4.101-0.096c-0.593,0-1.693,0.067-1.693,0.067
		c1.592,1.714,4.376,3.273,8.133,3.31c2.8,0.03,5.962-0.763,8.988-2.935C51.743,50.763,49.016,30.698,43.306,25.203z"/>
	<path fill="#FFFFFF" d="M20.468,44.61c-7.718,2.419-11.716,11.924-8.312,21.452c0.272,0.769,0.593,1.532,0.963,2.297
		c4.759,9.781,14.231,7.553,14.231,7.553s3.427-6.484-2.903-11.519c-4.419-3.518-6.716-7.026-4.587-12.516
		c0.112-0.291,0.246-0.592,0.389-0.894c0.023-0.055,0.046-0.111,0.074-0.169c0.738-1.615,1.847-3.227,2.528-4.217
		c0.461-0.669,1.002-0.998,2.199-1.098c1.113-0.094,3.769-0.034,4.481,0.019c1.03,0.084,1.483,0.25,2.014,1.049
		c0.012,0.019,0.025,0.038,0.037,0.059C30.06,43.793,25.165,43.139,20.468,44.61z"/>
	<path fill="#FFFFFF" d="M25.722,58.3c-0.804-0.107-1.47-0.102-1.886-0.261l-0.004-0.005c-0.364-0.137-0.704-0.38-0.996-0.81
		c-0.661-0.973-1.974-3.225-2.43-4.159c-0.494-1.003-0.45-1.453-0.084-2.251c0.739-1.615,1.848-3.227,2.529-4.214
		c0.016-0.022,0.033-0.048,0.048-0.069c-0.32,0.274-2.955,2.545-4.698,4.944c-3.206,4.414-2.324,10.513,1.331,14.298
		c2.672,2.767,5.796,3.335,8.18,3.27c4.38-0.12,8.399-3.56,8.399-3.56C34.675,61.265,30.591,58.937,25.722,58.3z"/>
	<g>
		<g>
			<path fill="#FFFFFF" d="M27.711,69.044c0.046,0,0.09-0.005,0.134-0.007c-0.507-1.538-1.524-3.155-3.397-4.644
				c-4.419-3.518-6.716-7.026-4.587-12.516c0.111-0.291,0.246-0.59,0.388-0.893c0.023-0.056,0.047-0.112,0.074-0.17
				c0.739-1.615,1.848-3.227,2.529-4.214c0.016-0.022,0.033-0.045,0.047-0.066c-0.319,0.272-2.954,2.542-4.697,4.941
				c-3.206,4.414-2.324,10.513,1.331,14.298C22.203,68.541,25.327,69.109,27.711,69.044z"/>
		</g>
	</g>
	<path fill="#FFFFFF" d="M39.02,37.528c-2.173-6.03-7.231-11.124-13.788-12.882C14.272,21.712,4.941,25.627,0,32.379
		c0,0,3.672,5.871,13.103,5.372c6.122-0.329,12.489,0.277,16.952,6.628c0.479,0.68,0.924,1.342,1.342,1.981
		c0.047,0.063,0.098,0.133,0.148,0.207c0.501,0.757,1.218,1.837,2.333,3.919c0.375,0.7,0.395,1.608-0.041,2.508
		c-0.471,0.972-1.524,3.02-2.012,3.785c-0.347,0.549-1.167,1.416-2.205,1.506c-0.005,0.002-0.009,0.002-0.014,0.004
		c3.674-0.201,6.684-2.514,8.649-6.022C40.576,48.123,40.792,42.447,39.02,37.528z"/>
	<path fill="#FFFFFF" d="M34.8,39.979c-2.087-3.828-6.943-8.306-15.348-8.306c-11.822,0-18.146,8.879-18.146,17.514
		c0,6.844,3.711,13.637,10.849,16.883c-2.582-10.473,2.042-19.889,12.758-20.555c0.047-0.006,0.091-0.01,0.137-0.015
		c1.113-0.094,3.769-0.034,4.481,0.019c1.03,0.084,1.483,0.25,2.014,1.049c0.501,0.757,1.218,1.839,2.333,3.919
		c0.375,0.7,0.395,1.608-0.041,2.508c-0.41,0.849-1.265,2.512-1.799,3.432c0.115-0.133,2.606-3.053,3.371-4.964
		C37.22,46.941,35.898,41.988,34.8,39.979z"/>
	<path fill="#FFFFFF" d="M29.607,58.293c3.674-0.202,6.684-2.517,8.649-6.025c2.321-4.145,2.536-9.82,0.764-14.739
		c-0.812-2.251-2.025-4.372-3.571-6.236c-0.603,1.731-0.754,3.919-0.429,6.733c0.766,5.283,0.319,9.771-0.467,12.796
		c-0.167,0.648-0.333,1.168-0.504,1.624c-0.051,0.183-0.12,0.365-0.21,0.552c-0.471,0.972-1.524,3.018-2.012,3.783
		c-0.347,0.549-1.167,1.419-2.205,1.508L29.607,58.293z"/>
	<path fill="#FFFFFF" d="M35.409,51.462c1.811-4.521,0.489-9.475-0.609-11.483c-2.087-3.828-6.943-8.306-15.348-8.306
		c-5.71,0-10.137,2.072-13.189,5.188c1.824,0.636,4.085,1.033,6.84,0.891c6.122-0.329,12.489,0.277,16.952,6.628
		c0.479,0.68,0.924,1.342,1.342,1.981l0,0c0.023,0.03,0.046,0.062,0.07,0.094c0.025,0.036,0.052,0.076,0.078,0.113
		c0.501,0.757,1.218,1.839,2.333,3.919c0.375,0.7,0.395,1.608-0.041,2.508c-0.41,0.849-1.265,2.512-1.799,3.432
		C32.153,56.294,34.645,53.374,35.409,51.462z"/>
	<path fill="#FFFFFF" d="M42.317,60.293c-1.509-1.006-2.382-3.182-2.306-5.293c0.084-2.289-1.277-1.928-1.277-1.928
		s-2.821,5.165-9.286,5.221c-0.002,0-0.002,0-0.005,0c-1.179-0.01-3.229-0.086-4.089-0.095c-4.134,0.044-8.162,0.836-11.428,4.977
		c0,0,3.454-0.187,10.231,1.901C36.745,68.952,42.968,61.67,42.317,60.293z"/>
	<path fill="#FFFFFF" d="M38.735,53.069c0,0-2.794,5.115-9.194,5.221c-0.034,0.003-0.072,0.004-0.107,0.003
		c-0.324,0-0.764-0.011-1.234-0.026c-1.061-0.023-2.244-0.062-2.844-0.068c-0.225,0.004-0.449,0.009-0.672,0.015
		c-0.36,0.015-0.718,0.033-0.906,0.043c-0.047,0.005-0.091,0.009-0.136,0.011c1.59,1.713,4.375,3.272,8.131,3.31
		c2.8,0.03,5.962-0.766,8.988-2.935c0.023-0.019,0.042-0.033,0.064-0.049c-0.569-1.044-0.859-2.332-0.812-3.593
		C40.096,52.711,38.735,53.069,38.735,53.069z"/>
	<path fill="#FFFFFF" d="M20.468,44.61c-7.718,2.419-11.716,11.924-8.312,21.454c-2.581-10.47,2.043-19.883,12.758-20.549
		c0.047-0.006,0.091-0.01,0.137-0.015c1.113-0.094,3.769-0.034,4.481,0.019c1.03,0.084,1.483,0.25,2.014,1.049
		c0.012,0.019,0.025,0.038,0.037,0.059C30.06,43.793,25.165,43.139,20.468,44.61z"/>
	<path fill="#FFFFFF" d="M36.109,65.484c-1.436-4.219-5.519-6.547-10.387-7.184c-0.321-0.044-0.617-0.066-0.886-0.094
		c-3.951,0.11-7.778,1.002-10.909,4.968c0,0,3.454-0.187,10.231,1.901C29.157,66.614,33.149,66.395,36.109,65.484z"/>
	<path fill="#FFFFFF" d="M35.344,41.193c0.239,3.906-0.168,7.225-0.792,9.628c-0.167,0.648-0.333,1.168-0.504,1.621
		c0,0,0,0.005-0.002,0.009c-0.023,0.083-0.05,0.165-0.081,0.247c-0.006,0.019-0.013,0.032-0.02,0.051
		c-0.029,0.072-0.059,0.145-0.093,0.216c-0.004,0.012-0.009,0.021-0.014,0.03c-0.41,0.849-1.262,2.506-1.797,3.43
		c0.136-0.157,2.607-3.06,3.368-4.962C36.921,47.68,36.247,43.603,35.344,41.193z"/>
	<path fill="#FFFFFF" d="M25.661,65.495c-0.357-0.37-0.833-0.744-1.284-1.102c-2.165-1.723-3.75-3.44-4.625-5.394
		c-2.094,0.697-4.14,1.951-5.894,4.176c0,0,3.452-0.187,10.231,1.901C24.598,65.232,25.172,65.375,25.661,65.495z"/>
	<g>
		<path fill="#FFFFFF" d="M29.521,58.293c-0.024,0-0.047,0-0.073,0c-0.002,0-0.002,0-0.005,0c-0.355-0.003-0.79-0.013-1.247-0.023
			c0.473,0.013,0.913,0.023,1.237,0.024C29.463,58.294,29.493,58.293,29.521,58.293z"/>
		<path fill="#FFFFFF" d="M23.641,58.266c0.044-0.002,0.089-0.006,0.136-0.01c-0.085,0.006-0.138,0.009-0.138,0.009L23.641,58.266z"
			/>
		<path fill="#FFFFFF" d="M23.641,58.266c0.044-0.002,0.089-0.006,0.136-0.01c-0.085,0.006-0.138,0.009-0.138,0.009L23.641,58.266z"
			/>
		<path fill="#FFFFFF" d="M24.846,58.21c-0.007-0.003-0.014-0.003-0.018-0.003c-0.048,0.003-0.097,0.005-0.145,0.006
			C24.736,58.212,24.792,58.212,24.846,58.21z"/>
		<path fill="#FFFFFF" d="M24.846,58.21c-0.007-0.003-0.014-0.003-0.018-0.003c-0.048,0.003-0.097,0.005-0.145,0.006
			C24.736,58.212,24.792,58.212,24.846,58.21z"/>
		<path fill="#FFFFFF" d="M24.846,58.21c-0.054,0.002-0.109,0.002-0.163,0.003c-0.304,0.011-0.605,0.024-0.906,0.044
			c-0.047,0.004-0.091,0.008-0.136,0.01c1.592,1.713,4.375,3.272,8.131,3.31c0.544,0.008,1.103-0.018,1.67-0.081
			c-1.972-1.749-4.696-2.8-7.721-3.194C25.406,58.256,25.112,58.234,24.846,58.21z"/>
	</g>
</g>
</svg>
