<?xml version="1.0" encoding="utf-8"?>
<!-- Generator: Adobe Illustrator 17.0.0, SVG Export Plug-In . SVG Version: 6.00 Build 0)  -->
<!DOCTYPE svg PUBLIC "-//W3C//DTD SVG 1.1//EN" "http://www.w3.org/Graphics/SVG/1.1/DTD/svg11.dtd">
<svg version="1.1" id="Layer_1" xmlns="http://www.w3.org/2000/svg" xmlns:xlink="http://www.w3.org/1999/xlink" x="0px" y="0px"
	 width="50px" height="50px" viewBox="0 0 50 50" enable-background="new 0 0 50 50" xml:space="preserve">
<g>
	<g>
		<path fill="#231F20" d="M24.983,50c-13.785,0-25-11.214-25-25s11.215-25,25-25s25,11.215,25,25S38.769,50,24.983,50z
			 M24.983,1.991C12.297,1.991,1.975,12.313,1.975,25c0,12.687,10.322,23.009,23.009,23.009c12.687,0,23.009-10.322,23.009-23.009
			C47.992,12.313,37.671,1.991,24.983,1.991z"/>
	</g>
	<g>
		<path fill="#231F20" d="M36.635,17.793c-0.854,0.377-1.777,0.636-2.745,0.753c0.986-0.593,1.746-1.529,2.102-2.647
			c-0.924,0.552-1.948,0.951-3.036,1.161c-0.872-0.93-2.115-1.507-3.491-1.507c-2.637,0-4.78,2.143-4.78,4.78
			c0,0.375,0.043,0.741,0.124,1.089c-3.973-0.198-7.492-2.102-9.855-4.994c-0.412,0.702-0.644,1.525-0.644,2.402
			c0,1.663,0.841,3.123,2.126,3.979c-0.788-0.023-1.524-0.239-2.166-0.595c-0.002,0.018-0.002,0.037-0.002,0.056
			c0,2.32,1.648,4.251,3.838,4.689c-0.403,0.107-0.825,0.165-1.259,0.165c-0.311,0-0.61-0.027-0.897-0.084
			c0.605,1.896,2.368,3.284,4.461,3.319c-1.634,1.281-3.695,2.046-5.936,2.046c-0.387,0-0.766-0.023-1.141-0.066
			c2.12,1.357,4.627,2.153,7.328,2.153c8.793,0,13.603-7.29,13.603-13.607c0-0.208-0.007-0.412-0.017-0.618
			C35.183,19.594,35.992,18.752,36.635,17.793z"/>
	</g>
</g>
</svg>
